<svg width="30" height="30" viewBox="0 0 30 30" fill="none" xmlns="http://www.w3.org/2000/svg">
<path d="M19.4316 18.9561L19.5439 19.0176C21.8882 20.3134 23.1437 21.8737 23.5332 23.4434C23.9239 25.0189 23.4176 26.509 22.4355 27.5898C20.4751 29.7473 16.5761 30.3293 13.8174 27.0166C13.6412 26.8046 13.6692 26.4892 13.8809 26.3125C14.0928 26.136 14.4081 26.1645 14.585 26.376C16.9272 29.1891 20.1134 28.658 21.6953 26.917C22.4844 26.0486 22.8634 24.8928 22.5635 23.6836C22.2671 22.4891 21.2829 21.151 19.1689 19.9561H1.16504C0.889219 19.9558 0.665255 19.7319 0.665039 19.4561C0.665193 19.1802 0.889181 18.9563 1.16504 18.9561H19.4316ZM19.4844 7.92676C22.2431 4.61348 26.143 5.19585 28.1035 7.35352C29.0856 8.43438 29.5918 9.92451 29.2012 11.5C28.8116 13.0697 27.5561 14.63 25.2119 15.9258L25.0986 15.9873H1.16504C0.889228 15.9871 0.66527 15.7631 0.665039 15.4873C0.665256 15.2115 0.88922 14.9875 1.16504 14.9873H24.8369C26.9506 13.7924 27.934 12.4542 28.2305 11.2598C28.5304 10.0506 28.1523 8.8948 27.3633 8.02637C25.7814 6.28532 22.5952 5.75423 20.2529 8.56738C20.0761 8.77881 19.7607 8.80731 19.5488 8.63086C19.3371 8.45423 19.3082 8.13884 19.4844 7.92676ZM5.88184 2.9834C8.64038 -0.329471 12.5394 0.252875 14.5 2.41016C15.4821 3.491 15.9893 4.98117 15.5986 6.55664C15.2092 8.12637 13.9537 9.6866 11.6094 10.9824L11.4961 11.0439H1.16504C0.889146 11.0437 0.665136 10.8199 0.665039 10.5439C0.665256 10.2681 0.88922 10.0442 1.16504 10.0439H11.2334C13.3476 8.8489 14.3315 7.51096 14.6279 6.31641C14.9279 5.10722 14.5488 3.95145 13.7598 3.08301C12.1777 1.34225 8.99253 0.811074 6.65039 3.62402C6.47361 3.83574 6.15832 3.86404 5.94629 3.6875C5.73445 3.51085 5.70551 3.19551 5.88184 2.9834Z" fill="white"/>
</svg>
