<svg width="31" height="31" viewBox="0 0 31 31" fill="none" xmlns="http://www.w3.org/2000/svg">
<path d="M26.9286 4.07143C26.6905 2.88095 25.2143 0.5 21.2143 0.5C17.2143 0.5 15.7381 2.88095 15.5 4.07143V8.35714L0.5 23.3571C3.39488 23.3571 8.7666 23.3571 13.3571 23.3571M26.9286 4.07143L30.5 6.21429L26.9286 8.35714M26.9286 4.07143V8.35714M19.0714 23.3571C23.6429 23.3571 26.2143 18.5952 26.9286 16.2143V8.35714M19.0714 23.3571C17.5879 23.3571 15.5627 23.3571 13.3571 23.3571M19.0714 23.3571H13.3571M19.0714 23.3571V30.5M13.3571 23.3571V30.5M20.5 9.07143C21.9286 11.9286 21.9286 18.0714 10.5 19.7857M22.6429 4.78571V5.5" stroke="white" stroke-linecap="round" stroke-linejoin="round"/>
</svg>
