<svg width="25" height="30" viewBox="0 0 25 30" fill="none" xmlns="http://www.w3.org/2000/svg">
<path d="M11.934 0.152344C14.9362 0.152344 17.3027 0.823958 19.2592 2.01953C21.2103 3.21194 22.7205 4.90528 24.0433 6.89746C24.5932 7.72551 24.8548 8.46203 24.8412 9.11621C24.8269 9.79266 24.5193 10.313 24.0795 10.6855C23.6533 11.0465 23.1077 11.2688 22.5795 11.4014C22.0464 11.5351 21.4958 11.5869 21.0287 11.5869H17.1361C17.9416 14.6399 18.6396 18.9175 18.2777 22.5498C18.0839 24.4945 17.5814 26.3102 16.5765 27.6504C15.5521 29.0167 14.035 29.8477 11.934 29.8477C9.8322 29.8476 8.35903 29.0149 7.42029 27.6318C6.5039 26.2814 6.13089 24.4577 6.07556 22.5146C5.97255 18.8948 6.96746 14.6352 7.98572 11.5869H2.84021C2.47016 11.5869 2.03852 11.5323 1.63025 11.3877C1.22299 11.2434 0.806506 10.9978 0.517944 10.5967C-0.0950164 9.74441 0.0542336 8.50925 1.12439 6.89746C2.41743 4.95014 3.59862 3.24518 5.22205 2.04395C6.86883 0.825551 8.92891 0.152399 11.934 0.152344ZM9.04236 11.5869C8.00667 14.5948 6.97264 18.9041 7.07458 22.4863C7.12759 24.3472 7.48591 25.9481 8.24744 27.0703C8.98668 28.1595 10.139 28.8476 11.934 28.8477C13.7303 28.8477 14.9471 28.1572 15.7767 27.0508C16.6259 25.9183 17.0973 24.3097 17.2826 22.4502C17.6382 18.8802 16.9174 14.5906 16.1 11.5869H9.04236ZM11.934 1.15234C9.09289 1.1524 7.25503 1.78354 5.81677 2.84766C4.35548 3.92891 3.2633 5.48499 1.95837 7.4502C0.950281 8.96844 1.09914 9.69109 1.33044 10.0127C1.46406 10.1983 1.68156 10.3441 1.96423 10.4443C2.2457 10.5441 2.561 10.5869 2.84021 10.5869H21.0287C21.4275 10.5869 21.8952 10.5414 22.3363 10.4307C22.7821 10.3187 23.1674 10.1486 23.434 9.92285C23.6868 9.70858 23.8338 9.44617 23.8412 9.0957C23.849 8.72283 23.6997 8.18716 23.2103 7.4502C21.935 5.52956 20.5215 3.96219 18.7377 2.87207C16.959 1.78523 14.778 1.15234 11.934 1.15234Z" fill="white"/>
</svg>
