<svg width="24" height="31" viewBox="0 0 24 31" fill="none" xmlns="http://www.w3.org/2000/svg">
<path d="M14.4092 0.188965C15.9673 -0.189124 17.3699 0.0269931 18.582 0.596191C20.9762 1.72082 22.5966 4.2003 23.3662 6.1001C23.3902 6.15955 23.4023 6.22348 23.4023 6.2876V29.9019C23.4023 30.1778 23.1782 30.4016 22.9023 30.4019C22.6264 30.4017 22.4024 30.1778 22.4023 29.9019V6.38721C21.6658 4.61654 20.1943 2.45837 18.1572 1.50146C17.1369 1.02228 15.9664 0.839864 14.6445 1.16064C13.5161 1.43466 12.2525 2.08306 10.8643 3.26904C13.6242 3.85428 15.2855 5.4201 16.209 7.2251C17.228 9.21699 17.3347 11.4645 17.125 12.9341C17.0899 13.1803 16.8785 13.3635 16.6299 13.3638H0.5C0.22392 13.3638 0.000100992 13.1398 0 12.8638C7.43197e-05 8.76763 1.61296 6.24296 3.68457 4.7876C5.63674 3.41652 7.94733 3.02864 9.56934 3.08838C11.2871 1.4662 12.9047 0.554218 14.4092 0.188965ZM2.88965 21.3306C3.1655 21.3308 3.38955 21.5547 3.38965 21.8306V24.521C3.38954 24.7969 3.1655 25.0207 2.88965 25.021C2.61357 25.021 2.38976 24.797 2.38965 24.521V21.8306C2.38975 21.5545 2.61357 21.3306 2.88965 21.3306ZM8.26562 21.3306C8.5417 21.3306 8.76552 21.5545 8.76562 21.8306V24.521C8.76552 24.797 8.5417 25.021 8.26562 25.021C7.98955 25.021 7.76573 24.797 7.76562 24.521V21.8306C7.76573 21.5545 7.98955 21.3306 8.26562 21.3306ZM13.6426 21.3306C13.9187 21.3306 14.1425 21.5545 14.1426 21.8306V24.521C14.1425 24.797 13.9187 25.021 13.6426 25.021C13.3665 25.021 13.1427 24.797 13.1426 24.521V21.8306C13.1427 21.5545 13.3665 21.3306 13.6426 21.3306ZM2.88965 15.9507C3.16557 15.9509 3.38965 16.1747 3.38965 16.4507V19.1411C3.38945 19.4169 3.16545 19.6409 2.88965 19.6411C2.61363 19.6411 2.38984 19.4171 2.38965 19.1411V16.4507C2.38965 16.1745 2.61351 15.9507 2.88965 15.9507ZM8.26562 15.9507C8.54177 15.9507 8.76562 16.1745 8.76562 16.4507V19.1411C8.76543 19.4171 8.54165 19.6411 8.26562 19.6411C7.9896 19.6411 7.76582 19.4171 7.76562 19.1411V16.4507C7.76562 16.1745 7.98948 15.9507 8.26562 15.9507ZM13.6426 15.9507C13.9187 15.9507 14.1426 16.1745 14.1426 16.4507V19.1411C14.1424 19.4171 13.9186 19.6411 13.6426 19.6411C13.3666 19.6411 13.1428 19.4171 13.1426 19.1411V16.4507C13.1426 16.1745 13.3664 15.9507 13.6426 15.9507ZM9.71484 4.09521C8.25662 4.00379 6.06925 4.33512 4.25977 5.60596C2.55347 6.8046 1.13355 8.8735 1.00977 12.3638H16.1826C16.2931 11.0581 16.1279 9.26363 15.3184 7.68115C14.4328 5.9502 12.7622 4.43718 9.71484 4.09521Z" fill="white"/>
</svg>
