<svg width="39" height="30" viewBox="0 0 39 30" fill="none" xmlns="http://www.w3.org/2000/svg">
<path d="M37.9001 0.672607C38.1763 0.672611 38.4001 0.896467 38.4001 1.17261C38.4001 1.44871 38.1763 1.6726 37.9001 1.67261H33.4978L28.1599 25.9021C28.1093 26.1308 27.9069 26.2944 27.6726 26.2947C27.4384 26.2947 27.2354 26.1317 27.1843 25.9031L22.1726 3.4519L18.8162 18.2839C18.7642 18.5126 18.5595 18.675 18.325 18.6736C18.0907 18.6718 17.8887 18.5071 17.8396 18.2781L14.7566 3.85229L10.5896 28.9099C10.5494 29.1508 10.3406 29.3277 10.0964 29.3279C9.85217 29.3277 9.64242 29.1509 9.60229 28.9099L5.07202 1.67261H1.09937C0.823249 1.67261 0.599407 1.44871 0.599365 1.17261C0.599365 0.896465 0.823223 0.672607 1.09937 0.672607H37.9001ZM6.08569 1.67261L10.0955 25.7781L14.1062 1.67261H6.08569ZM22.7996 1.67261L27.6677 23.4832L32.4744 1.67261H22.7996ZM15.3142 1.67261L18.3416 15.8455L21.5505 1.67261H15.3142Z" fill="white"/>
</svg>
