<svg width="30" height="30" viewBox="0 0 30 30" fill="none" xmlns="http://www.w3.org/2000/svg">
<path d="M27.3091 0.763916L28.6294 0.818604L28.7192 0.832275C28.9239 0.88116 29.0807 1.05569 29.1011 1.27173C29.6247 6.88655 28.9423 15.0119 25.1226 21.0715C23.205 24.1132 20.491 26.6412 16.7466 28.052C13.0054 29.4614 8.27882 29.7397 2.35986 28.3645C2.18981 28.325 2.05312 28.1993 1.99854 28.0334C0.418463 23.2227 -0.173433 16.0461 3.3042 10.2336C6.6996 4.55916 13.8718 0.343021 27.3091 0.763916ZM28.1421 1.79907C14.3524 1.17261 7.37364 5.37917 4.16162 10.7473C1.07169 15.9121 1.37116 22.3026 2.70264 26.9221L5.71436 23.8225L9.17236 20.2629V13.6711C9.17264 13.3952 9.39639 13.1711 9.67236 13.1711C9.94809 13.1714 10.1721 13.3954 10.1724 13.6711V19.2327L13.9351 15.3586L18.9126 10.2346C19.105 10.0371 19.4217 10.0326 19.6196 10.2249C19.8172 10.4172 19.8213 10.7339 19.6294 10.9319L15.4771 15.2073H20.5151C20.791 15.2075 21.0149 15.4314 21.0151 15.7073C21.0151 15.9833 20.7911 16.2071 20.5151 16.2073H14.5054L10.0308 20.8137L7.25537 23.6711H13.0493C13.3251 23.6714 13.549 23.8954 13.5493 24.1711C13.5493 24.4472 13.3253 24.6709 13.0493 24.6711H6.28369L3.45654 27.5813C8.81944 28.6993 13.0592 28.3719 16.394 27.1155C19.9035 25.7932 22.4555 23.4258 24.2759 20.5383C27.8364 14.8901 28.58 7.27552 28.1421 1.79907Z" fill="white"/>
</svg>
