<svg width="23" height="30" viewBox="0 0 23 30" fill="none" xmlns="http://www.w3.org/2000/svg">
<path d="M9.08948 6.05469C10.08 5.9623 11.0948 6.01962 11.9811 6.37891C13.504 6.99642 14.7765 8.56293 15.6403 9.87988C16.0808 10.5517 16.4327 11.1867 16.6744 11.6533C16.7804 11.8579 16.8649 12.0319 16.9274 12.1621C17.9107 12.2643 19.2539 12.4709 20.401 12.7959C21.0287 12.9738 21.6299 13.1958 22.0846 13.4736C22.5115 13.7346 22.9655 14.1429 22.9655 14.7373C22.9652 15.4283 22.471 15.8263 21.9537 16.0264C21.4427 16.2239 20.786 16.29 20.1315 16.29C18.8311 16.29 17.3348 16.025 16.4762 15.749L14.3414 15.2227C14.2307 15.1953 14.1322 15.1308 14.0631 15.04L13.1119 13.7891L12.3414 17.207L15.8795 20.6973L15.9293 20.7539C15.9745 20.8144 16.0059 20.8851 16.0201 20.96C16.2906 22.3827 16.5644 24.5287 16.4957 26.335C16.4616 27.2315 16.3415 28.0938 16.0641 28.748C15.783 29.4106 15.2798 29.9736 14.4615 29.9736C13.6977 29.9736 13.1482 29.5211 12.7789 28.9346C12.4162 28.3582 12.185 27.5958 12.0358 26.8037C11.7586 25.3315 11.7399 23.6057 11.8102 22.3643L9.50647 20.8496L9.08655 23.7559C9.0757 23.8303 9.04859 23.9025 9.00647 23.9648C8.10536 25.298 6.63623 27.1789 5.15881 28.4688C4.42598 29.1085 3.64605 29.6433 2.90002 29.8633C2.5206 29.9751 2.12557 30.0129 1.74182 29.9199C1.35061 29.8252 1.00941 29.6033 0.733032 29.2627C0.194152 28.5983 0.0962199 27.8493 0.283813 27.1211C0.464953 26.4187 0.907764 25.7399 1.43811 25.1318C2.43728 23.9865 3.86221 22.9609 4.93713 22.3193L6.90491 11.1582L5.25061 11.4844C4.96111 12.4545 4.47849 13.7542 3.86194 14.8174C3.52229 15.403 3.1231 15.9502 2.66956 16.3271C2.21238 16.707 1.63928 16.9589 1.00159 16.8018C0.643735 16.7135 0.37884 16.4921 0.220337 16.1865C0.0728397 15.9018 0.0287565 15.568 0.0338135 15.2422C0.0440845 14.5911 0.253641 13.7853 0.542603 12.9658C1.12616 11.311 2.10364 9.4124 2.82288 8.1709L2.86194 8.1123C2.90502 8.05746 2.95998 8.01234 3.02209 7.97949L3.02307 7.97852H3.02405C3.02489 7.97807 3.02654 7.97729 3.02795 7.97656C3.03098 7.97498 3.03532 7.9725 3.04065 7.96973C3.05192 7.96387 3.06842 7.95508 3.08948 7.94434C3.13189 7.9227 3.19396 7.89137 3.27307 7.85254C3.43169 7.7747 3.6611 7.66553 3.94495 7.53906C4.51201 7.28641 5.30352 6.96267 6.1969 6.67871C7.08849 6.39535 8.09466 6.14751 9.08948 6.05469ZM11.6051 7.30566C10.9229 7.02917 10.0863 6.96644 9.18225 7.05078C8.28233 7.13475 7.35011 7.36153 6.49963 7.63184C5.65117 7.90152 4.8956 8.21004 4.35217 8.45215C4.08123 8.57287 3.86335 8.67695 3.71448 8.75C3.67752 8.76814 3.64407 8.78469 3.61584 8.79883C2.92111 10.012 2.02174 11.7787 1.48596 13.2979C1.20607 14.0916 1.04149 14.7733 1.03381 15.2578C1.03008 15.4993 1.06679 15.6469 1.10803 15.7266C1.1385 15.7852 1.17202 15.8141 1.24084 15.8311C1.45668 15.8842 1.71123 15.8242 2.03088 15.5586C2.35421 15.2899 2.68283 14.8566 2.9967 14.3154C3.62149 13.238 4.11448 11.8607 4.37463 10.9199L4.39807 10.8535C4.4629 10.7045 4.59717 10.5946 4.7594 10.5625L7.42737 10.0361C7.58917 10.0042 7.75684 10.0545 7.87463 10.1699C7.99205 10.2853 8.04569 10.4512 8.01721 10.6133L5.88245 22.7188C5.85664 22.8644 5.7675 22.9917 5.63928 23.0654C4.59789 23.6646 3.1557 24.6853 2.19202 25.79C1.70881 26.344 1.37726 26.883 1.25159 27.3701C1.13276 27.8312 1.19481 28.2449 1.5094 28.6328C1.65982 28.8182 1.81687 28.9094 1.97717 28.9482C2.14484 28.9888 2.35524 28.9813 2.61682 28.9043C3.15351 28.746 3.80181 28.3258 4.50061 27.7158C5.85431 26.5341 7.23271 24.7856 8.11389 23.4951L8.63049 19.9287C8.655 19.7596 8.76471 19.6141 8.92053 19.5439C9.07639 19.474 9.25727 19.4891 9.40002 19.583L12.6022 21.6875C12.7533 21.787 12.8388 21.9611 12.8258 22.1416C12.7386 23.3456 12.7401 25.1411 13.0182 26.6182C13.158 27.3605 13.3606 27.9802 13.6256 28.4014C13.8843 28.8123 14.1584 28.9736 14.4615 28.9736C14.7103 28.9736 14.9407 28.8347 15.1432 28.3574C15.3492 27.8715 15.4631 27.1542 15.4957 26.2969C15.5581 24.6558 15.3172 22.6781 15.0641 21.2979L11.442 17.7246C11.3193 17.6034 11.2675 17.427 11.3053 17.2588L12.3727 12.5225L12.3942 12.4531C12.4539 12.2973 12.5884 12.1798 12.7545 12.1436C12.9443 12.1023 13.1408 12.1746 13.2584 12.3291L14.7526 14.2939L16.7155 14.7783L16.7526 14.7891C17.5013 15.0351 18.916 15.29 20.1315 15.29C20.7436 15.29 21.2542 15.2249 21.5934 15.0938C21.9259 14.9651 21.9653 14.8354 21.9655 14.7373C21.9655 14.7003 21.9306 14.5518 21.5631 14.3271C21.223 14.1193 20.7234 13.9264 20.1285 13.7578C18.946 13.4228 17.5116 13.216 16.5514 13.1299C16.3703 13.1136 16.2118 13.0003 16.1383 12.834L16.1373 12.832C16.1366 12.8303 16.1351 12.827 16.1334 12.8232C16.1299 12.8155 16.125 12.8029 16.1178 12.7871C16.103 12.7548 16.08 12.706 16.0504 12.6436C15.9909 12.5181 15.9018 12.3354 15.7867 12.1133C15.5561 11.6682 15.2215 11.0639 14.8043 10.4277C13.9517 9.12766 12.8215 7.79887 11.6051 7.30566ZM12.4918 0.00390625C14.1835 0.0884702 15.5289 1.46864 15.5289 3.1582L15.525 3.32031C15.4393 4.98868 14.0405 6.31508 12.3278 6.31543L12.1627 6.31152C10.5255 6.22975 9.21246 4.93512 9.12952 3.32031L9.12561 3.1582C9.12561 1.41415 10.5595 0 12.3278 0L12.4918 0.00390625ZM12.3278 1C11.0988 1 10.1256 1.97937 10.1256 3.1582C10.1258 4.3369 11.0989 5.31543 12.3278 5.31543C13.5563 5.31507 14.5288 4.33668 14.5289 3.1582C14.5289 1.97959 13.5564 1.00036 12.3278 1Z" fill="white"/>
</svg>
