<svg width="28" height="27" viewBox="0 0 28 27" fill="none" xmlns="http://www.w3.org/2000/svg">
<path d="M7.66455 1.42334C14.3859 -1.78736 22.4477 1.03909 25.6704 7.73584L25.8169 8.05127C28.803 14.6832 25.9507 22.5156 19.3345 25.6763L19.019 25.8218C12.4686 28.75 4.75187 26.0441 1.48486 19.6743L1.32959 19.3638C-1.8928 12.6669 0.943376 4.63431 7.66455 1.42334ZM24.7681 8.1665C21.7857 1.96958 14.323 -0.648808 8.09814 2.32471C1.8736 5.29851 -0.749694 12.7349 2.23193 18.9321C5.21404 25.1294 12.6759 27.7482 18.9009 24.7749C25.1259 21.8011 27.7502 14.3639 24.7681 8.1665ZM10.9263 4.74854C11.0667 4.78669 11.1835 4.8842 11.2466 5.01514L12.2046 7.00537L13.9292 7.79346C14.0655 7.85597 14.1664 7.9769 14.2046 8.12158C14.2426 8.26631 14.2144 8.42153 14.1265 8.54248L12.7583 10.4194L12.979 12.7681C13.0032 13.0301 12.8196 13.2664 12.5591 13.3071L9.96631 13.7104L8.02686 15.4722C7.89978 15.5872 7.72168 15.6295 7.55615 15.5835C7.39062 15.5373 7.25992 15.4089 7.21045 15.2446L6.46826 12.7681L4.22607 11.8267C4.07325 11.7624 3.96208 11.6265 3.9292 11.4644C3.89645 11.3019 3.94758 11.1341 4.06396 11.0161L5.56885 9.49072L5.55811 6.61084C5.55773 6.47418 5.61447 6.3429 5.71338 6.24854C5.81232 6.15446 5.94587 6.10524 6.08252 6.11182L8.4292 6.22607L10.5151 4.81689C10.6356 4.73565 10.7858 4.71055 10.9263 4.74854ZM8.85498 7.14697C8.76541 7.20753 8.65748 7.23717 8.54932 7.23193L6.56104 7.13428L6.57178 9.69482C6.57199 9.82597 6.51935 9.95198 6.42725 10.0454L5.29443 11.1919L7.07373 11.938C7.21176 11.996 7.31691 12.1132 7.35986 12.2563L7.94092 14.1978L9.40283 12.8706C9.47521 12.8049 9.56584 12.7616 9.6626 12.7466L11.938 12.3921L11.7446 10.3237V10.2339C11.7525 10.1444 11.7849 10.0574 11.8384 9.98389L12.9565 8.44775L11.6245 7.83838C11.5182 7.78974 11.4321 7.7043 11.3813 7.59912L10.5962 5.96924L8.85498 7.14697Z" fill="white"/>
</svg>
