<svg width="29" height="31" viewBox="0 0 29 31" fill="none" xmlns="http://www.w3.org/2000/svg">
<path d="M6.78941 26.1703C5.55853 23.7072 2.51551 20.6968 1.14786 19.4994C0.121481 18.6018 0.463352 17.4469 1.14786 16.4206C3.20077 13.3426 6.27654 19.4994 7.81515 18.4732C9.35375 17.4469 3.19934 6.15764 6.27654 4.10506C8.73831 2.46299 11.0633 9.57862 11.9181 13.3417C11.5762 9.23648 11.6104 0.923435 14.4824 0.512918C17.3545 0.1024 17.3887 9.57871 17.0468 14.3682C17.3887 10.6051 18.7905 3.18159 21.6626 3.59211C24.5346 4.00263 22.8593 10.9471 21.6626 14.368C23.0302 12.4864 26.1758 8.82597 27.817 9.23649C29.8685 9.74964 26.7912 16.4205 25.2526 19.4994C23.714 22.5783 24.7398 27.7098 19.0982 29.7624C13.4567 31.8149 8.32801 29.2492 6.78941 26.1703Z" stroke="white" stroke-linecap="round" stroke-linejoin="round"/>
</svg>
