<svg width="18" height="18" viewBox="0 0 18 18" fill="none" xmlns="http://www.w3.org/2000/svg">
<path d="M9 0C13.9706 0 18 4.02944 18 9C18 13.9706 13.9706 18 9 18C4.02944 18 0 13.9706 0 9C0 4.02944 4.02944 0 9 0ZM9 1C4.58172 1 1 4.58172 1 9C1 13.4183 4.58172 17 9 17C13.4183 17 17 13.4183 17 9C17 4.58172 13.4183 1 9 1ZM8.68945 3.53418C8.96549 3.53418 9.18929 3.75818 9.18945 4.03418V9.70898L12.4395 12.6641C12.6436 12.8497 12.6589 13.1658 12.4736 13.3701C12.2879 13.5744 11.9709 13.5901 11.7666 13.4043L8.35352 10.3008L8.18945 10.1523V4.03418C8.18962 3.75824 8.4135 3.53429 8.68945 3.53418Z" fill="white"/>
</svg>
