<svg width="30" height="30" viewBox="0 0 30 30" fill="none" xmlns="http://www.w3.org/2000/svg">
<path d="M19.4296 0.904297C19.6206 0.705206 19.9373 0.69778 20.1366 0.888672C20.3359 1.0796 20.342 1.39629 20.1512 1.5957L15.5009 6.4502V14.1152L21.8387 10.2959L23.538 3.67383C23.6079 3.40148 23.8771 3.2347 24.1395 3.30176C24.4018 3.36893 24.5578 3.64381 24.4882 3.91602L22.8593 10.2637L28.9393 11.9648C29.2001 12.0378 29.3505 12.3162 29.2753 12.5869C29.1997 12.8578 28.9268 13.0183 28.6659 12.9453L22.3221 11.1709L15.9667 15L22.3212 18.8291L28.6659 17.0547C28.9267 16.982 29.1987 17.1425 29.2743 17.4131C29.3497 17.6839 29.2001 17.9621 28.9393 18.0352L22.8583 19.7363L24.4882 26.084C24.558 26.3563 24.401 26.6311 24.1385 26.6982C23.8764 26.7649 23.607 26.5991 23.537 26.3271L21.8368 19.7041L15.5009 15.8848V23.5488L20.1512 28.4043C20.3421 28.6036 20.3356 28.9203 20.1366 29.1113C19.9372 29.3023 19.6206 29.2951 19.4296 29.0957L15.0009 24.4727L10.5721 29.0957C10.3812 29.2951 10.0645 29.3022 9.86511 29.1113C9.66574 28.9203 9.65856 28.6037 9.84949 28.4043L14.5009 23.5488V15.8848L8.16394 19.7041L6.46375 26.3262C6.39388 26.5984 6.12451 26.765 5.86218 26.6982C5.5998 26.6311 5.44289 26.3563 5.51257 26.084L7.14246 19.7363L1.0614 18.0352C0.800643 17.9621 0.651121 17.6838 0.72644 17.4131C0.802061 17.1425 1.07412 16.982 1.33484 17.0547L7.67957 18.8291L14.0321 15L7.67859 11.1709L1.33484 12.9453C1.07402 13.0183 0.801157 12.8585 0.725464 12.5879C0.649941 12.317 0.800548 12.0379 1.0614 11.9648L7.14148 10.2637L5.51257 3.91699C5.44268 3.64464 5.59877 3.36896 5.86121 3.30176C6.1237 3.23462 6.39285 3.40144 6.46277 3.67383L8.16199 10.2959L14.5009 14.1152V6.4502L9.84949 1.5957C9.65868 1.39628 9.66578 1.07963 9.86511 0.888672C10.0646 0.698177 10.3813 0.705069 10.5721 0.904297L15.0009 5.52637L19.4296 0.904297Z" fill="white"/>
</svg>
