<svg width="37" height="23" viewBox="0 0 37 23" fill="none" xmlns="http://www.w3.org/2000/svg">
<path d="M5.41052 9.25586C7.6946 8.8453 9.25628 9.35352 10.2582 10.252C11.2399 11.1325 11.6119 12.3242 11.6576 13.1631C11.6687 13.3692 11.5519 13.5609 11.3636 13.6455C10.5311 14.0194 9.60715 14.3211 8.66052 14.5654C9.11788 15.7906 9.59174 17.4292 9.71814 18.8936C9.79068 19.7345 9.75351 20.572 9.4906 21.251C9.21584 21.9602 8.68678 22.5025 7.83728 22.6553C6.98713 22.808 6.30153 22.4822 5.79529 21.9121C5.31065 21.3662 4.9808 20.5935 4.7533 19.7783C4.35696 18.358 4.22784 16.6524 4.22595 15.3418C2.85711 15.4879 1.65552 15.5411 0.862671 15.54C0.621037 15.5397 0.41373 15.3665 0.370483 15.1289C0.221274 14.304 0.309027 13.0462 1.03259 11.8818C1.76757 10.6993 3.12476 9.6668 5.41052 9.25586ZM26.7426 10.252C27.7444 9.35351 29.3061 8.84531 31.5902 9.25586C33.876 9.6668 35.2332 10.6993 35.9681 11.8818C36.6917 13.0462 36.7795 14.304 36.6302 15.1289C36.587 15.3666 36.3797 15.5397 36.1381 15.54C35.3452 15.5411 34.1436 15.4879 32.7748 15.3418C32.7729 16.6524 32.6438 18.358 32.2474 19.7783C32.0199 20.5935 31.6901 21.3662 31.2054 21.9121C30.6992 22.4822 30.0136 22.808 29.1635 22.6553C28.314 22.5025 27.7849 21.9602 27.5101 21.251C27.2472 20.572 27.2101 19.7345 27.2826 18.8936C27.409 17.4292 27.8829 15.7906 28.3402 14.5654C27.3936 14.3211 26.4697 14.0194 25.6371 13.6455C25.4488 13.5609 25.332 13.3692 25.3431 13.1631C25.3888 12.3242 25.7608 11.1325 26.7426 10.252ZM7.6781 14.7949C6.85237 14.9729 6.0216 15.1119 5.22693 15.2188C5.22041 16.4885 5.3407 18.1616 5.71716 19.5107C5.92823 20.267 6.20569 20.8697 6.54236 21.249C6.8576 21.6041 7.20845 21.7526 7.65857 21.6719C8.10963 21.5908 8.38716 21.3297 8.55798 20.8887C8.74035 20.4176 8.78831 19.7583 8.72107 18.9785C8.60091 17.5864 8.12946 15.9792 7.6781 14.7949ZM29.3226 14.7949C28.8713 15.9792 28.3998 17.5864 28.2797 18.9785C28.2124 19.7583 28.2604 20.4176 28.4427 20.8887C28.6136 21.3297 28.8911 21.5908 29.3422 21.6719C29.7923 21.7526 30.1431 21.6041 30.4584 21.249C30.7951 20.8697 31.0725 20.267 31.2836 19.5107C31.66 18.1616 31.7803 16.4885 31.7738 15.2188C30.9791 15.1119 30.1483 14.9729 29.3226 14.7949ZM18.6869 0.305664C22.0432 0.305702 24.2089 1.42581 25.5306 2.88867C26.8379 4.33564 27.2785 6.07242 27.2787 7.25391C27.2786 7.4955 27.1052 7.70285 26.8676 7.74609C25.681 7.96099 23.835 8.20497 21.7152 8.34668C22.0764 10.2565 22.3663 12.8655 22.1586 15.0938C22.0444 16.3173 21.776 17.4798 21.2455 18.3506C20.6978 19.2491 19.8609 19.8437 18.6869 19.8438C17.5135 19.8437 16.6771 19.2512 16.1293 18.3545C15.5984 17.4855 15.3302 16.3254 15.2162 15.1045C15.0089 12.8834 15.2984 10.2835 15.6595 8.37891C14.1458 8.27743 12.65 8.07939 11.2845 7.73926C11.0843 7.6893 10.9354 7.52115 10.9095 7.31641C10.762 6.1395 10.9806 4.38621 12.1234 2.91699C13.2831 1.42647 15.3323 0.30569 18.6869 0.305664ZM20.7064 8.4043C19.4114 8.46659 18.0386 8.48679 16.6674 8.43262C16.3047 10.2936 16.0109 12.8646 16.2113 15.0117C16.3196 16.1715 16.5674 17.1544 16.9818 17.833C17.3795 18.4839 17.9184 18.8437 18.6869 18.8438C19.4547 18.8437 19.9939 18.484 20.392 17.8311C20.8068 17.1503 21.055 16.164 21.1635 15.001C21.3642 12.848 21.0688 10.2702 20.7064 8.4043ZM9.59119 10.9961C8.86734 10.3469 7.63875 9.87065 5.58826 10.2393C3.53955 10.6076 2.44809 11.5021 1.88318 12.4111C1.42428 13.1497 1.29381 13.9339 1.31482 14.5332C2.16989 14.515 3.35816 14.4455 4.67029 14.2852C5.69962 14.1593 6.80122 13.9801 7.87341 13.7305C8.84189 13.505 9.77963 13.2237 10.6176 12.8779C10.5132 12.2834 10.2107 11.5519 9.59119 10.9961ZM31.4125 10.2393C29.3619 9.87065 28.1334 10.3469 27.4095 10.9961C26.7901 11.5519 26.4876 12.2834 26.3832 12.8779C27.2211 13.2237 28.1588 13.505 29.1273 13.7305C30.1995 13.9801 31.3011 14.1593 32.3304 14.2852C33.6426 14.4455 34.8308 14.515 35.6859 14.5332C35.7069 13.9339 35.5765 13.1497 35.1176 12.4111C34.5526 11.5021 33.4612 10.6076 31.4125 10.2393ZM18.6869 1.30566C15.5699 1.30569 13.843 2.33444 12.9125 3.53027C12.0712 4.61172 11.8311 5.89418 11.8734 6.84863C13.2409 7.15963 14.75 7.33778 16.2865 7.41602C17.9122 7.49877 19.5597 7.47172 21.0873 7.38574C23.1554 7.26931 24.9957 7.04385 26.2562 6.83594C26.1639 5.88946 25.7573 4.6309 24.7885 3.55859C23.6827 2.33499 21.8023 1.3057 18.6869 1.30566Z" fill="white"/>
</svg>
