<svg width="29" height="28" viewBox="0 0 29 28" fill="none" xmlns="http://www.w3.org/2000/svg">
<path d="M14.1256 0.961182C19.0017 -1.36811 24.8517 0.681604 27.191 5.54224C29.5301 10.4033 27.4714 16.2322 22.5953 18.5618C21.3647 19.1496 19.7238 19.3943 18.4547 19.4504C17.9632 22.309 16.1383 24.895 13.3141 26.2444L12.8776 26.4387C8.34212 28.3305 3.06533 26.365 0.915649 21.8977C-1.30302 17.2864 0.64992 11.756 5.27795 9.54517C6.37264 9.02224 7.51916 8.73405 8.66077 8.65649C9.13741 5.60309 11.0801 2.41614 14.1256 0.961182ZM16.7731 14.3225C14.7944 10.2111 9.84319 8.47285 5.71155 10.4465C1.57993 12.4203 -0.160299 17.3554 1.81799 21.467C3.79664 25.5786 8.74881 27.3177 12.8805 25.344C17.0121 23.3702 18.7516 18.4342 16.7731 14.3225ZM7.56311 11.6848C7.70382 11.7229 7.82128 11.8202 7.8844 11.9514L8.51917 13.2688L9.65491 13.7903C9.79147 13.8527 9.89402 13.9735 9.93225 14.1184C9.97009 14.263 9.94012 14.4175 9.85217 14.5383L8.94495 15.7844L9.09241 17.342C9.1167 17.6043 8.93229 17.8405 8.67151 17.8811L6.93225 18.1516L5.63245 19.3333C5.50536 19.4485 5.32744 19.4906 5.16174 19.4446C4.99596 19.3984 4.86442 19.2702 4.81506 19.1057L4.32483 17.47L2.84924 16.8518C2.69648 16.7875 2.58523 16.6516 2.55237 16.4895C2.51963 16.3272 2.57 16.1582 2.68616 16.0403L3.67737 15.0354L3.67053 13.1174C3.67004 12.9807 3.72684 12.8486 3.82581 12.7542C3.92481 12.66 4.05919 12.6108 4.19592 12.6174L5.7594 12.6936L7.15198 11.7522C7.27235 11.6709 7.42261 11.647 7.56311 11.6848ZM26.2887 5.97388C24.1898 1.61256 18.9391 -0.22972 14.5592 1.86255C11.9196 3.12362 10.1574 5.90431 9.67737 8.64185C12.9996 8.78074 16.1375 10.6961 17.6754 13.8918C18.3829 15.3622 18.6641 16.9257 18.5719 18.4456C19.7441 18.379 21.1493 18.144 22.1617 17.6604C26.5413 15.5679 28.3873 10.3352 26.2887 5.97388ZM6.1842 13.6155C6.09474 13.6758 5.98746 13.7057 5.87952 13.7004L4.67346 13.6409L4.6803 15.2395C4.6807 15.3711 4.62921 15.4984 4.53674 15.592L3.91858 16.217L4.93127 16.6409C5.06941 16.6989 5.17448 16.8169 5.21741 16.9602L5.54553 18.0588L6.36877 17.3118C6.4411 17.2461 6.53185 17.2028 6.62854 17.1877L8.05139 16.9661L7.93127 15.6877C7.92006 15.5671 7.95382 15.4458 8.02502 15.3479L8.68323 14.4426L7.93909 14.1038C7.83274 14.055 7.74659 13.9698 7.69592 13.8645L7.23401 12.9045L6.1842 13.6155ZM20.9235 2.35181C21.0583 2.28954 21.2142 2.29104 21.3483 2.35474C21.4823 2.41861 21.5813 2.53894 21.6178 2.68286L21.899 3.79028L23.5172 4.75708L23.608 4.82642C23.6892 4.90464 23.743 5.00922 23.7574 5.12329C23.7766 5.27537 23.7246 5.42813 23.6168 5.53735L22.7174 6.44946L22.7281 7.74146C22.7293 7.89023 22.6633 8.03218 22.5494 8.12817C22.4356 8.22402 22.2847 8.2658 22.1383 8.2395L20.6315 7.96704L19.5367 8.43481C19.2859 8.54164 18.9956 8.42855 18.8844 8.17993L18.3512 6.98462L16.9449 6.28442C16.8204 6.22218 16.7269 6.10956 16.6881 5.97583C16.6495 5.84221 16.6691 5.69766 16.7408 5.57837L17.4576 4.38989L17.2037 3.02759C17.1717 2.85527 17.2327 2.67726 17.3639 2.56079C17.495 2.44486 17.6774 2.40638 17.8444 2.45825L19.5455 2.9895L20.9235 2.35181ZM19.7897 3.97778C19.6769 4.0299 19.5478 4.03826 19.4293 4.00122L18.3395 3.65942L18.4752 4.3938L18.484 4.48364C18.4841 4.57413 18.459 4.66387 18.4117 4.74243L17.8766 5.63013L18.9576 6.17017L19.0309 6.21509C19.0998 6.26587 19.1547 6.33434 19.1901 6.41333L19.5983 7.32251L20.3785 6.9895C20.4683 6.9512 20.5677 6.94005 20.6637 6.95728L21.7233 7.14771L21.7155 6.25024C21.7146 6.11787 21.7661 5.99019 21.859 5.89575L22.4586 5.28931L21.2076 4.54224C21.0943 4.47446 21.0126 4.36454 20.9801 4.23657L20.7965 3.51099L19.7897 3.97778Z" fill="white"/>
</svg>
