<svg width="23" height="30" viewBox="0 0 23 30" fill="none" xmlns="http://www.w3.org/2000/svg">
<path d="M11.8246 0.138184C15.0696 0.138184 17.6124 1.41948 19.4427 2.96924C21.2639 4.51132 22.4003 6.33519 22.8451 7.47803C22.9049 7.63186 22.8846 7.80564 22.7914 7.94189C22.6982 8.07802 22.5433 8.15967 22.3783 8.15967H14.2748C14.8671 11.7764 15.4572 16.9049 15.3978 21.23C15.3666 23.505 15.1567 25.6005 14.6517 27.1431C14.1566 28.6552 13.2906 29.8618 11.8246 29.8618C10.359 29.8614 9.49344 28.6549 8.99841 27.1431C8.49348 25.6005 8.28356 23.5049 8.25232 21.23C8.19297 16.9049 8.78308 11.7764 9.37537 8.15967H0.64978C0.397376 8.15937 0.184356 7.97077 0.153687 7.72021C-0.130881 5.37864 1.48403 3.46632 3.70642 2.18408C5.94854 0.890553 8.9545 0.138265 11.8246 0.138184ZM10.3881 8.15967C9.79223 11.7512 9.1922 16.9065 9.25134 21.2163C9.28218 23.4622 9.4915 25.4363 9.94861 26.8325C10.4156 28.2587 11.056 28.8615 11.8246 28.8618C12.5935 28.8618 13.2334 28.259 13.7006 26.8325C14.1577 25.4363 14.367 23.4623 14.3978 21.2163C14.457 16.9065 13.8579 11.7512 13.2621 8.15967H10.3881ZM11.8246 1.13818C9.10824 1.13827 6.2779 1.85463 4.20544 3.05029C2.2908 4.1551 1.14194 5.58819 1.12341 7.15967H21.5961C21.0787 6.17926 20.1468 4.87651 18.7963 3.73291C17.1088 2.30419 14.7879 1.13818 11.8246 1.13818Z" fill="white"/>
</svg>
