<svg width="28" height="31" viewBox="0 0 28 31" fill="none" xmlns="http://www.w3.org/2000/svg">
<path d="M4.98145 0.850586C7.80245 -0.107031 9.47943 0.0409169 10.792 0.47168C11.403 0.672201 11.9783 0.95416 12.4336 1.13672C12.9153 1.32985 13.3663 1.46189 13.9023 1.46191C14.4715 1.46191 15.0921 1.35223 15.8047 1.20312C16.5033 1.05693 17.2915 0.872396 18.1328 0.75C19.8387 0.501878 21.8157 0.499757 24.1143 1.50293C26.3957 2.49866 27.6613 4.06523 27.8506 5.42383C27.9467 6.11422 27.76 6.78973 27.2168 7.22168C26.6845 7.64483 25.9233 7.74317 25.0557 7.54688C24.2425 7.36283 23.607 7.15807 23.0947 6.95215C23.0085 7.10245 22.8487 7.20493 22.6631 7.20508C22.3408 7.20519 21.8914 7.40381 21.332 7.85938C20.7888 8.30182 20.2123 8.92835 19.6445 9.64453C18.5657 11.0054 17.5649 12.6335 16.9395 13.7793C17.6591 16.4567 18.3851 20.3813 18.2656 23.6895C18.2046 25.379 17.9214 26.9671 17.2568 28.1484C16.5726 29.3644 15.481 30.1454 13.9023 30.1455C13.1303 30.1455 12.4621 29.9578 11.9023 29.5996C11.3451 29.2429 10.9223 28.7346 10.6084 28.1348C9.98799 26.9489 9.76716 25.3582 9.77246 23.6699C9.78284 20.3865 10.6497 16.4961 11.4688 13.8213C10.6338 12.7737 9.35532 11.2749 8.04199 9.95703C7.34126 9.25389 6.63789 8.60913 5.99414 8.1123C5.33779 7.60581 4.78997 7.29045 4.39355 7.18945C4.15377 7.12824 3.99985 6.9037 4.01953 6.66504C3.65299 6.8911 3.30077 7.14666 2.96875 7.43652C2.57014 7.78448 2.17602 8.01764 1.79492 8.10938C1.39833 8.20472 1.00917 8.14465 0.698242 7.90039C0.403113 7.66833 0.244048 7.32117 0.173828 6.96582C0.102837 6.60631 0.112887 6.19633 0.193359 5.77148C0.514548 4.07656 1.99977 1.86284 4.98145 0.850586ZM12.3945 14.2148C11.5998 16.8366 10.7823 20.5661 10.7725 23.6729C10.7673 25.3029 10.9861 26.6995 11.4941 27.6709C11.7445 28.1493 12.059 28.513 12.4414 28.7578C12.8217 29.0011 13.298 29.1455 13.9023 29.1455C15.0764 29.1454 15.8563 28.5991 16.3857 27.6582C16.9347 26.6823 17.2077 25.2826 17.2666 23.6533C17.3785 20.5538 16.7113 16.8346 16.0215 14.2148H12.3945ZM7.14551 5.45215C6.32968 5.62505 5.52358 5.88657 4.7627 6.25781C5.33595 6.43451 5.97324 6.83338 6.60547 7.32129C7.29626 7.85445 8.03281 8.53229 8.75 9.25195C10.1021 10.6088 11.4132 12.1441 12.2656 13.2148H12.624C12.2791 12.0118 11.7001 10.4396 10.917 9.05371C10.4542 8.23482 9.93043 7.49735 9.35645 6.94043C8.78171 6.3829 8.18048 6.02888 7.56152 5.92383C7.32486 5.8835 7.15515 5.68288 7.14551 5.45215ZM13.7686 5.62988C12.674 5.3259 10.7938 5.04595 8.7666 5.21582C8.72661 5.21917 8.68654 5.22286 8.64648 5.22656C9.15956 5.46381 9.62896 5.81156 10.0527 6.22266C10.7181 6.86824 11.2969 7.69323 11.7881 8.5625C12.6787 10.1388 13.3133 11.9219 13.6631 13.2148H14.1709C14.6165 11.9268 15.3599 10.1351 16.2871 8.55469C16.7935 7.69154 17.364 6.87444 17.9814 6.23438C18.3661 5.83559 18.7859 5.48878 19.2354 5.24707C18.2463 5.18413 16.6807 5.27551 13.9697 5.64355C13.9026 5.65263 13.8339 5.64802 13.7686 5.62988ZM20.6416 5.55762C20.5948 5.7359 20.4525 5.88158 20.2598 5.9209C19.7768 6.01932 19.2499 6.35986 18.7012 6.92871C18.1586 7.49123 17.6336 8.23533 17.1494 9.06055C16.3382 10.4432 15.6684 12.0087 15.2314 13.2148H16.1084C16.7556 12.0392 17.7639 10.4066 18.8604 9.02344C19.4502 8.27941 20.0781 7.5907 20.7002 7.08398C21.0767 6.7773 21.4813 6.51211 21.8965 6.35547C21.3926 6.0473 21.0673 5.77223 20.7148 5.59277C20.691 5.58064 20.6664 5.56935 20.6416 5.55762ZM10.4805 1.4209C9.40709 1.06863 7.95511 0.897882 5.30371 1.79785C2.65457 2.69714 1.42815 4.62615 1.17578 5.95801C1.11302 6.28952 1.11375 6.56708 1.1543 6.77246C1.19569 6.98167 1.26962 7.07746 1.31641 7.11426C1.34759 7.13875 1.41001 7.17318 1.56152 7.13672C1.72859 7.09642 1.98058 6.97155 2.31152 6.68262C4.17118 5.05921 6.52999 4.39921 8.68359 4.21875C10.776 4.04349 12.7214 4.31855 13.9307 4.63965C18.5232 4.02072 20.0769 4.1461 21.1689 4.70215C22.2503 5.25279 22.5345 5.9507 25.2764 6.57129C25.9724 6.72877 26.384 6.60682 26.5947 6.43945C26.7944 6.28064 26.9207 5.99497 26.8604 5.56152C26.7363 4.67224 25.8119 3.3356 23.7139 2.41992C21.6327 1.51166 19.8553 1.50956 18.2764 1.73926C17.4753 1.85579 16.7375 2.03013 16.0088 2.18262C15.2941 2.33217 14.5845 2.46191 13.9023 2.46191C13.1871 2.46189 12.6017 2.28104 12.0615 2.06445C11.4949 1.83725 11.0625 1.6119 10.4805 1.4209Z" fill="white"/>
</svg>
