<svg width="38" height="38" viewBox="0 0 38 38" fill="none" xmlns="http://www.w3.org/2000/svg">
<path d="M37.1614 18.1585C37.1647 18.1585 37.1672 18.1585 37.1705 18.1585C37.402 18.1585 37.6226 18.0614 37.7794 17.8914C37.9386 17.7188 38.0175 17.4874 37.9967 17.2534C37.1639 8.09258 29.9114 0.837214 20.7503 0.00267336C20.518 -0.015577 20.2841 0.0599133 20.1115 0.220019C19.939 0.379295 19.8428 0.604107 19.8453 0.838874C19.9896 13.0135 21.5955 17.9884 37.1614 18.1585ZM37.1614 19.8409C21.5955 20.0109 19.9904 24.9858 19.8461 37.1605C19.8436 37.3952 19.9398 37.6201 20.1124 37.7793C20.2667 37.9212 20.4682 38 20.6756 38C20.7005 38 20.7262 37.9992 20.7511 37.9967C29.9123 37.1621 37.1647 29.9076 37.9967 20.7459C38.0175 20.512 37.9395 20.2805 37.7794 20.108C37.6193 19.9354 37.3961 19.85 37.1614 19.8409ZM17.1941 0.00682127C8.062 0.86542 0.832777 8.11912 0.00409164 17.2551C-0.0166462 17.489 0.0613283 17.7205 0.221425 17.893C0.378203 18.0631 0.599683 18.1593 0.830289 18.1593C0.833607 18.1593 0.836925 18.1593 0.840243 18.1593C16.3547 17.981 17.9565 13.0086 18.1025 0.842192C18.1049 0.607425 18.0079 0.381784 17.8353 0.222508C17.6611 0.0632316 17.4281 -0.0147474 17.1941 0.00682127ZM0.839413 19.84C0.581434 19.811 0.379033 19.9338 0.220595 20.1063C0.0613283 20.2789 -0.0174757 20.5103 0.00326219 20.7443C0.831948 29.8802 8.062 37.1339 17.1941 37.9925C17.2198 37.995 17.2464 37.9959 17.2721 37.9959C17.4795 37.9959 17.6802 37.9179 17.8345 37.776C18.0071 37.6167 18.1041 37.3911 18.1016 37.1563C17.9556 24.9908 16.3547 20.0184 0.839413 19.84Z" fill="white"/>
</svg>
