<svg width="29" height="31" viewBox="0 0 29 31" fill="none" xmlns="http://www.w3.org/2000/svg">
<path d="M14.4477 30.5C18.3442 30.5 24.4055 23.632 27.4361 19.7688C29.2212 17.4933 28.4559 12.7512 27.352 9.03759C26.9566 7.70744 26.5178 6.50924 26.1372 5.60361C27.4361 5.03127 29.341 3.3715 26.5702 1.3111C23.7993 -0.749287 21.9521 1.59716 21.3748 3.02794C19.0823 2.27028 16.6493 2.04198 14.4477 2.08486C11.6601 2.13915 9.24365 2.62821 7.95351 3.02794C7.2318 1.88334 5.18224 -0.0624707 2.75775 1.3111C0.333248 2.68468 1.45919 4.7451 2.32522 5.60361C2.07335 6.53112 1.78022 7.72722 1.50353 9.03759C0.67044 12.983 -0.0136318 17.9643 1.02638 19.7688C2.75816 22.7735 10.5512 30.5 14.4477 30.5ZM14.4477 30.5L13.1484 21.0565M14.4477 30.5L15.7461 21.0565M13.1484 21.0565C10.5508 21.4858 9.68488 16.3348 10.1178 12.4716C10.4642 9.38099 12.7155 9.03759 14.4477 9.03759C16.1791 9.03759 17.9108 9.46684 18.7767 12.4716C19.9051 16.3871 17.045 21.915 15.7461 21.0565M13.1484 21.0565C15.7461 20.6273 10.5512 17.1933 14.4477 17.1933C18.3442 17.1933 14.4473 20.198 15.7461 21.0565" stroke="white"/>
</svg>
