<svg width="27" height="30" viewBox="0 0 27 30" fill="none" xmlns="http://www.w3.org/2000/svg">
<path d="M0.931396 4.97632C1.08374 4.8235 1.31766 4.78579 1.5105 4.88257C7.01864 7.65162 10.3039 12.2856 12.1716 16.9216C14.0368 21.5515 14.5032 26.2154 14.3572 29.116C14.3438 29.382 14.1235 29.5916 13.8572 29.5916H5.28589C5.133 29.5915 4.98808 29.5211 4.89331 29.4011C4.79876 29.2811 4.76417 29.124 4.79956 28.9753C5.803 24.7601 5.36639 19.9849 4.39136 15.7009C3.41749 11.4223 1.917 7.6805 0.8396 5.55542C0.742259 5.36305 0.779377 5.12918 0.931396 4.97632ZM25.9988 14.3005C26.1905 14.243 26.3988 14.3061 26.5271 14.4597C26.6552 14.6136 26.6788 14.8293 26.5876 15.0076C23.2329 21.5599 24.4715 27.0221 25.4421 28.8572C25.5241 29.0121 25.5188 29.1992 25.4285 29.3494C25.338 29.4996 25.1751 29.5916 24.9998 29.5916H18.9998C18.8613 29.5915 18.729 29.5335 18.6345 29.4324C18.5401 29.3311 18.4912 29.1945 18.5007 29.0564C19.1945 19.0051 23.6282 15.0135 25.9988 14.3005ZM2.40112 6.5144C3.40359 8.76116 4.56085 11.942 5.36597 15.4792C6.31181 19.635 6.78014 24.3266 5.90698 28.5916H13.3748C13.4431 25.7973 12.9501 21.531 11.2439 17.2957C9.59968 13.2145 6.84102 9.1878 2.40112 6.5144ZM25.0701 15.8806C23.0575 17.2738 20.1876 20.9401 19.5427 28.5916H24.2273C23.3079 26.2292 22.6434 21.4766 25.0701 15.8806ZM24.1248 0.229248C24.3421 0.221392 24.5394 0.355725 24.613 0.560303C24.6866 0.765146 24.6198 0.99443 24.447 1.12671C24.013 1.45876 23.4098 2.13925 22.7302 3.18042C22.0566 4.21259 21.3255 5.57151 20.6248 7.22925C19.2236 10.5442 17.9505 15.0414 17.4978 20.4958C17.4778 20.7372 17.2877 20.9301 17.0466 20.9529C16.8057 20.9755 16.5832 20.8217 16.5183 20.5886C16.2815 19.7382 15.7723 17.9594 15.0134 16.0486C14.2501 14.1266 13.2528 12.1203 12.0564 10.7839C11.9244 10.6363 11.8916 10.4243 11.9734 10.2439C12.7086 8.6226 14.1836 6.19436 16.239 4.13647C18.2914 2.08177 20.9762 0.343774 24.1248 0.229248ZM22.7898 1.39624C20.5597 1.8594 18.5811 3.20667 16.947 4.84253C15.1075 6.68414 13.7499 8.84612 13.0173 10.3689C14.2335 11.8264 15.2116 13.8376 15.9431 15.6794C16.2621 16.4827 16.5367 17.2632 16.7673 17.9626C17.3604 13.4905 18.4797 9.73582 19.7039 6.8396C20.4245 5.13463 21.1831 3.7228 21.8933 2.63452C22.1996 2.16517 22.5009 1.75062 22.7898 1.39624Z" fill="white"/>
</svg>
