<svg width="12" height="17" viewBox="0 0 12 17" fill="none" xmlns="http://www.w3.org/2000/svg">
<path d="M4.87015 0.742829C4.87411 0.328634 5.21309 -0.00392616 5.62729 3.42905e-05C6.04148 0.00399476 6.37404 0.342976 6.37008 0.757171L5.62012 0.75L4.87015 0.742829ZM6.00193 16.2853C5.70625 16.5754 5.23139 16.5708 4.94131 16.2752L0.214198 11.4568C-0.0758815 11.1611 -0.0713414 10.6862 0.224339 10.3962C0.520019 10.1061 0.994872 10.1106 1.28495 10.4063L5.48683 14.6893L9.76984 10.4874C10.0655 10.1974 10.5404 10.2019 10.8305 10.4976C11.1205 10.7933 11.116 11.2681 10.8203 11.5582L6.00193 16.2853ZM5.62012 0.75L6.37008 0.757171L6.22666 15.7571L5.47669 15.7499L4.72672 15.7428L4.87015 0.742829L5.62012 0.75Z" fill="#133524"/>
</svg>
