<svg width="36" height="30" viewBox="0 0 36 30" fill="none" xmlns="http://www.w3.org/2000/svg">
<path d="M8.09009 22.9592C8.226 22.719 8.52898 22.6376 8.76685 22.7776C9.00475 22.9178 9.08738 23.2267 8.95142 23.467L5.83325 28.9807C5.69729 29.2211 5.39343 29.3016 5.15552 29.1614C4.918 29.0211 4.83522 28.7131 4.97095 28.4729L8.09009 22.9592ZM16.8235 22.9592C16.9594 22.7189 17.2633 22.6374 17.5012 22.7776C17.7389 22.9179 17.8217 23.2268 17.6858 23.467L14.5667 28.9807C14.4307 29.221 14.1278 29.3014 13.8899 29.1614C13.6521 29.0212 13.5686 28.7132 13.7043 28.4729L16.8235 22.9592ZM25.5579 22.9592C25.6938 22.7189 25.9967 22.6376 26.2346 22.7776C26.4725 22.9178 26.5551 23.2267 26.4192 23.467L23.3 28.9807C23.164 29.2208 22.8611 29.3015 22.6233 29.1614C22.3857 29.0211 22.303 28.7131 22.4387 28.4729L25.5579 22.9592ZM12.6418 2.07935C14.2868 0.899621 15.9858 0.596639 17.6028 0.864502C20.6682 1.37259 23.3646 3.91637 24.9749 6.12817C25.7979 6.05256 26.5061 6.17316 27.1057 6.44653C27.7763 6.75247 28.2804 7.23418 28.6497 7.77856C29.2348 8.64149 29.4961 9.68291 29.5774 10.5315C30.6537 10.3938 31.5655 10.5233 32.3264 10.8665C33.2175 11.2684 33.8553 11.9417 34.2991 12.7131C35.1746 14.2356 35.3302 16.1972 35.2219 17.5237C35.2005 17.7827 34.9838 17.9823 34.7239 17.9827H1.65942C1.4323 17.9827 1.23384 17.8292 1.17603 17.6096C0.142369 13.6533 1.09104 11.1505 2.85376 9.69556C4.44641 8.38119 6.60316 8.00858 8.20825 8.05298C9.56484 5.12597 11.066 3.20954 12.6418 2.07935ZM17.4387 1.85083C16.077 1.62536 14.6483 1.87099 13.2249 2.89185C11.7873 3.92282 10.3292 5.76417 8.97778 8.77368C8.89199 8.96418 8.69602 9.08166 8.48755 9.06763C6.99807 8.96632 4.93007 9.27811 3.49048 10.4661C2.15063 11.5718 1.24484 13.5317 2.05103 16.9827H34.2493C34.2787 15.8133 34.0801 14.3367 33.4329 13.2112C33.071 12.5821 32.5769 12.0771 31.9153 11.7786C31.2538 11.4803 30.3766 11.3675 29.2092 11.6057C29.0623 11.6357 28.9085 11.5979 28.7922 11.5032C28.6761 11.4083 28.6088 11.2654 28.6086 11.1155C28.6086 10.3297 28.4024 9.19676 27.8215 8.34009C27.536 7.91909 27.1658 7.57245 26.6907 7.35571C26.2169 7.13975 25.6056 7.03814 24.8137 7.15356C24.6272 7.1806 24.4406 7.09977 24.3323 6.94556C22.7984 4.75377 20.2168 2.31122 17.4387 1.85083Z" fill="white"/>
</svg>
