<svg width="24" height="30" viewBox="0 0 24 30" fill="none" xmlns="http://www.w3.org/2000/svg">
<path d="M14.9893 0.282471C16.0288 0.00713792 17.3394 0.0450778 20.3535 1.00317C21.8811 1.48876 22.898 2.08284 23.4404 2.78931C23.7185 3.15167 23.8729 3.54506 23.8984 3.95532C23.9236 4.36199 23.8201 4.75211 23.6396 5.1106C23.285 5.81502 22.6065 6.44814 21.8281 6.97388C21.0404 7.50593 20.1039 7.95948 19.1729 8.28833C17.9509 8.71997 17.126 9.91596 16.6055 11.3762C16.0931 12.8138 15.9187 14.3941 15.917 15.4075C16.3937 20.9867 16.1028 24.5502 15.3516 26.7395C14.9731 27.8422 14.4668 28.6294 13.8525 29.1409C13.2305 29.6586 12.5307 29.8664 11.8281 29.8665C10.2949 29.8664 8.94831 28.5059 8.23828 26.1516C7.51831 23.764 7.38047 20.1885 8.34668 15.3254C8.69012 13.597 8.54076 12.4308 8.12012 11.4036C7.70685 10.3946 7.03131 9.50173 6.17871 8.30493C5.38496 8.25061 4.4712 7.96587 3.61816 7.55493C2.66302 7.09477 1.72669 6.45294 1.0625 5.72583C0.413253 5.015 -0.0646164 4.11847 0.150391 3.1897C0.368172 2.25035 1.23697 1.52076 2.68848 1.00806C5.43591 0.0377636 6.87929 0.014163 8.11816 0.276611C9.36219 0.540204 10.0982 0.978693 11.8271 0.97876C13.5384 0.97876 13.9562 0.556136 14.9893 0.282471ZM7.41602 8.31763C8.07225 9.23473 8.66089 10.0871 9.04492 11.0247C9.55153 12.2617 9.70236 13.6311 9.32715 15.5198C8.37937 20.2901 8.54028 23.6869 9.19629 25.8625C9.86232 28.071 10.9691 28.8664 11.8281 28.8665C12.3214 28.8664 12.7885 28.7256 13.2129 28.3723C13.6452 28.0124 14.066 27.4037 14.4053 26.4153C15.0882 24.4252 15.3959 21.0241 14.9189 15.4651C14.9178 15.4512 14.917 15.437 14.917 15.4231C14.917 14.3234 15.1024 12.6162 15.6641 11.0403C16.0185 10.0459 16.5418 9.05617 17.3008 8.31763C14.2511 8.31758 9.85275 8.31756 7.41602 8.31763ZM20.0508 1.95532C17.083 1.01195 16.0001 1.0493 15.2451 1.24927C14.4839 1.45102 13.7044 1.97876 11.8271 1.97876C9.96773 1.97869 8.90886 1.4667 7.91016 1.25513C6.90598 1.04245 5.65688 1.01971 3.02148 1.95044C1.67892 2.42463 1.22464 2.98131 1.12402 3.41528C1.0213 3.85951 1.22875 4.42464 1.80078 5.05103C2.35847 5.66153 3.18153 6.23484 4.05273 6.65454C4.92899 7.0766 5.79919 7.31754 6.44336 7.31763C8.81382 7.31748 15.6862 7.31757 18.916 7.31763C19.7532 7.01534 20.582 6.60846 21.2686 6.14478C21.9852 5.66066 22.5035 5.14502 22.7471 4.66138C22.8655 4.42604 22.9114 4.21144 22.8994 4.01685C22.8875 3.82577 22.8176 3.61936 22.6475 3.39771C22.2926 2.93562 21.514 2.42046 20.0508 1.95532ZM15.417 4.14771C15.6928 4.14795 15.9168 4.37191 15.917 4.64771C15.917 4.92369 15.6929 5.14746 15.417 5.14771H8.83691C8.56077 5.14771 8.33691 4.92385 8.33691 4.64771C8.33715 4.37176 8.56091 4.14771 8.83691 4.14771H15.417Z" fill="white"/>
</svg>
