<svg width="42" height="30" viewBox="0 0 42 30" fill="none" xmlns="http://www.w3.org/2000/svg">
<path d="M24.2144 1.12402C26.8711 0.0916885 29.3461 0.762178 31.2563 2.05566C33.0213 3.2509 34.3465 5.00314 34.9487 6.5332C36.2296 6.57415 37.6662 6.8461 38.8638 7.64844C40.1987 8.54292 41.1717 10.0505 41.3462 12.4238C41.4899 14.3815 40.7325 15.7763 39.7261 16.7246C38.7363 17.657 37.5172 18.1511 36.7036 18.377C36.6602 18.389 36.6149 18.3945 36.5698 18.3945H35.3159C35.6156 19.2288 35.8206 20.1844 35.8999 21.2783C36.0925 23.9358 35.0812 25.8206 33.7358 27.1064C32.4069 28.3763 30.7645 29.0532 29.6636 29.3633C29.6197 29.3756 29.5734 29.3818 29.5278 29.3818H5.13037C5.05783 29.3818 4.98526 29.3664 4.91943 29.3359C2.91981 28.4088 1.68534 27.1923 1.08057 25.8457C0.475262 24.4979 0.528555 23.0811 0.98877 21.8115C1.44721 20.5471 2.31315 19.4144 3.36182 18.5967C4.20039 17.943 5.1779 17.4749 6.18408 17.3145C5.69603 15.9664 5.66135 13.963 6.35205 11.9697C7.18812 9.55755 9.09654 7.1054 12.6274 5.71387C15.1201 4.73163 17.4951 4.87576 19.5806 5.65332C20.2109 3.89957 21.6265 2.12981 24.2144 1.12402ZM21.564 7.81543C19.1798 6.1782 16.1905 5.38484 12.9937 6.64453C9.74806 7.92378 8.04173 10.1465 7.29639 12.2969C6.53832 14.4845 6.78734 16.545 7.36475 17.4932C7.45847 17.6473 7.46169 17.8407 7.37354 17.998C7.28508 18.1555 7.11756 18.2528 6.93701 18.2529C5.94432 18.253 4.89144 18.6721 3.97607 19.3857C3.06261 20.0981 2.31797 21.0801 1.9292 22.1523C1.54231 23.2197 1.51108 24.3629 1.99268 25.4355C2.46644 26.4904 3.46405 27.5362 5.24365 28.3818H29.4526C30.458 28.0908 31.8982 27.4801 33.0454 26.3838C34.1996 25.2807 35.0716 23.6783 34.9028 21.3506C34.6865 18.3677 33.5098 16.6239 32.0142 15.6074C30.4932 14.5739 28.5744 14.2471 26.8169 14.2471C26.6005 14.2471 26.4084 14.1071 26.3413 13.9014C25.6994 11.9342 23.9629 9.46289 21.564 7.81543ZM30.6958 2.88281C28.9866 1.72547 26.8545 1.17007 24.5757 2.05566C22.2435 2.9622 21.0284 4.53432 20.5015 6.04688C21.0712 6.32026 21.6161 6.63807 22.1304 6.99121C24.5684 8.6656 26.382 11.1347 27.1714 13.251C28.9428 13.2932 30.932 13.6634 32.5757 14.7803C33.5008 15.4089 34.2953 16.2639 34.8813 17.3945H36.4976C37.2166 17.187 38.233 16.7569 39.0405 15.9961C39.8546 15.2289 40.4682 14.1193 40.3491 12.4971C40.1945 10.3945 39.3578 9.18356 38.3071 8.47949C37.2305 7.75811 35.8628 7.52539 34.5952 7.52539C34.3799 7.52507 34.1883 7.38609 34.1206 7.18164C33.6637 5.80101 32.4199 4.0503 30.6958 2.88281Z" fill="white"/>
</svg>
