<svg width="31" height="31" viewBox="0 0 31 31" fill="none" xmlns="http://www.w3.org/2000/svg">
<path d="M27.1228 20.2142C28.2485 20.0714 30.4999 20.4714 30.4999 23.2142C30.4999 25.9571 30.4999 28.0714 30.4999 28.7857C30.3592 29.3571 29.4868 30.5 27.1228 30.5C24.7589 30.5 10.0968 30.5 3.06122 30.5C2.21695 30.5 0.528416 30.1571 0.528416 28.7857C0.528416 27.4143 0.528416 24.5 0.528416 23.2142C0.387705 22.2142 0.697269 20.2142 3.06122 20.2142H3.48326M27.1228 20.2142H3.48326M27.1228 20.2142C27.6116 15.7474 26.487 7.40095 19.1022 5.28385M3.48326 20.2142C2.9944 15.7474 4.11901 7.40095 11.5038 5.28385M11.5038 5.28385C12.6214 4.96344 13.8825 4.78571 15.303 4.78571C16.7235 4.78571 17.9845 4.96344 19.1022 5.28385M11.5038 5.28385C11.3631 3.68923 11.9259 0.5 15.303 0.5C18.6801 0.5 19.2429 3.68923 19.1022 5.28385" stroke="white"/>
</svg>
