<svg width="25" height="31" viewBox="0 0 25 31" fill="none" xmlns="http://www.w3.org/2000/svg">
<path d="M15.3198 0C17.6235 4.70682e-05 19.0361 1.74479 19.8062 3.68848C20.5277 5.50991 20.7567 7.65835 20.6343 9.21777C22.2629 10.1654 23.2836 11.288 23.772 12.4834C24.2913 13.755 24.1839 15.052 23.6499 16.1973C22.6597 18.3205 20.2079 19.9378 17.4624 20.1299C17.5884 21.4524 17.7329 23.2367 17.6128 24.7656C17.5447 25.6326 17.389 26.4735 17.061 27.1123C16.7208 27.7746 16.1594 28.2724 15.3198 28.2725C14.6141 28.2724 14.0802 27.9177 13.7046 27.4004C13.3426 26.9016 13.1129 26.2376 12.9614 25.5352C12.7106 24.3712 12.6495 22.9719 12.6499 21.7188C12.193 21.835 11.721 21.9146 11.2397 21.9482C11.3658 23.2708 11.5112 25.055 11.3911 26.584C11.323 27.4511 11.1664 28.2918 10.8384 28.9307C10.4981 29.593 9.93685 30.0908 9.09717 30.0908C8.26547 30.0906 7.68702 29.6022 7.31104 28.9531C6.94479 28.3207 6.73391 27.484 6.60889 26.6162C6.38712 25.0764 6.41565 23.2768 6.45557 21.9512C3.0722 21.7583 0.86695 19.6736 0.206543 17.2852C-0.460899 14.8704 0.471701 12.1718 3.26709 10.9785C3.24172 9.42084 3.59946 7.28999 4.42139 5.48438C5.30293 3.54813 6.80596 1.81869 9.09717 1.81836C9.94999 1.81836 10.6809 2.05727 11.3022 2.45703C12.2074 1.06783 13.5227 7.02692e-05 15.3198 0ZM9.09717 2.81836C7.40066 2.81869 6.15603 4.08752 5.33154 5.89844C4.51356 7.69528 4.19481 9.8625 4.27881 11.2832C4.29166 11.5037 4.15824 11.7066 3.95068 11.7822C1.42804 12.6999 0.601377 14.9598 1.17041 17.0186C1.74041 19.0801 3.73223 20.9676 6.97021 20.9678C7.10552 20.9678 7.23542 21.022 7.32959 21.1191C7.42369 21.2164 7.47457 21.3481 7.47021 21.4834C7.42559 22.8466 7.36182 24.8327 7.59814 26.4736C7.71688 27.2979 7.9056 27.9847 8.17627 28.4521C8.43702 28.9022 8.73325 29.0906 9.09717 29.0908C9.4538 29.0908 9.72398 28.9111 9.94873 28.4736C10.1855 28.0126 10.3292 27.3306 10.394 26.5059C10.5229 24.8658 10.3297 22.8802 10.1958 21.5166C10.182 21.3763 10.2282 21.2363 10.3228 21.1318C10.4175 21.0274 10.5519 20.9679 10.6929 20.9678C13.3138 20.9678 15.6496 19.4634 16.522 17.5928C16.9516 16.6713 17.027 15.6652 16.6245 14.6797C16.2188 13.6866 15.3032 12.6571 13.644 11.752C13.4649 11.6542 13.3634 11.4566 13.3872 11.2539C13.5554 9.8318 13.3645 7.66673 12.6548 5.875C11.9402 4.07131 10.7817 2.81836 9.09717 2.81836ZM16.4458 19.4805C15.7134 20.292 14.7472 20.957 13.6509 21.3945C13.6397 22.7086 13.6891 24.1649 13.939 25.3242C14.0783 25.9704 14.2707 26.4782 14.5142 26.8135C14.7442 27.1302 15.0006 27.2724 15.3198 27.2725C15.6764 27.2724 15.9467 27.0926 16.1714 26.6553C16.408 26.1943 16.5509 25.5121 16.6157 24.6875C16.7446 23.0474 16.5514 21.0618 16.4175 19.6982C16.4102 19.6238 16.4211 19.5495 16.4458 19.4805ZM15.3198 1C13.9508 1.00007 12.8806 1.82174 12.0806 3.0957C12.7346 3.75613 13.229 4.60947 13.5845 5.50684C14.306 7.3283 14.534 9.47669 14.4116 11.0361C16.0405 11.9838 17.0619 13.1063 17.5503 14.3018C18.0696 15.5733 17.9622 16.8704 17.4282 18.0156C17.2312 18.4382 16.975 18.8397 16.6714 19.2148C16.7455 19.1733 16.8289 19.1494 16.9155 19.1494C19.5363 19.1492 21.8713 17.6449 22.7437 15.7744C23.1733 14.8528 23.2488 13.847 22.8462 12.8613C22.4405 11.8684 21.5255 10.8387 19.8667 9.93359C19.6876 9.83586 19.5851 9.6382 19.6089 9.43555C19.7771 8.01345 19.5862 5.84836 18.8765 4.05664C18.1619 2.25306 17.0043 1.00005 15.3198 1Z" fill="white"/>
</svg>
