<svg width="36" height="31" viewBox="0 0 36 31" fill="none" xmlns="http://www.w3.org/2000/svg">
<path d="M17.5488 1.24048C21.1061 0.0610854 26.0969 -0.640792 29.8604 0.832275C31.8621 1.61588 33.5261 3.02012 34.4111 5.28247C35.2894 7.5276 35.377 10.5564 34.3701 14.5549L34.3682 14.5608C34.1715 15.3027 33.8655 16.1192 33.4521 16.843C33.0427 17.5599 32.5033 18.2293 31.8203 18.6184C31.4942 18.8041 31.1421 18.919 30.7705 18.9514C30.7292 22.2036 30.3103 24.6128 29.5801 26.3459C28.8036 28.1886 27.6676 29.2833 26.2705 29.7815C24.8954 30.2717 23.3431 30.1563 21.7744 29.7454C20.2702 29.3512 18.701 28.6712 17.1777 27.9231C13.9927 29.3023 11.4859 29.8036 9.52734 29.6467C7.50297 29.4845 6.08152 28.6209 5.14941 27.3567C4.23137 26.1113 3.81686 24.5177 3.7002 22.925C3.59935 21.5475 3.71916 20.1386 3.95215 18.8909C3.71724 18.8326 3.49172 18.7405 3.27734 18.6184C2.59436 18.2294 2.05494 17.5598 1.64551 16.843C1.23215 16.1192 0.926168 15.3027 0.729492 14.5608L0.727539 14.5549C-0.279337 10.5564 -0.191767 7.52761 0.686523 5.28247C1.57159 3.0201 3.23547 1.61586 5.2373 0.832275C9.00093 -0.640688 13.9916 0.0610135 17.5488 1.24048ZM17.5488 2.3938C14.5206 2.42565 12.7673 2.86608 11.7422 3.53442C10.7253 4.19756 10.358 5.13181 10.2256 6.36743C10.1584 6.9947 10.1542 7.6787 10.1533 8.43091C10.1524 9.17464 10.1543 9.97911 10.0928 10.8088C9.96906 12.4778 9.5867 14.2795 8.39453 16.0549C7.4697 17.4321 6.58005 18.2828 5.7168 18.6858C5.46092 18.8052 5.20929 18.882 4.96484 18.9241C4.72585 20.1385 4.5997 21.5187 4.69727 22.8518C4.80615 24.3382 5.18923 25.7241 5.95508 26.7629C6.70716 27.7829 7.85758 28.5094 9.60742 28.6497C11.3097 28.786 13.5919 28.3655 16.6133 27.0774L15.8408 23.6301C15.4532 23.3382 15.0456 22.9887 14.7041 22.6165C14.3288 22.2072 13.9763 21.7129 13.8711 21.2034C13.8159 20.9355 13.8257 20.6444 13.9551 20.3665C14.0842 20.0893 14.3091 19.8739 14.5947 19.7141C15.1446 19.4066 15.9995 19.2591 17.1924 19.259C18.3848 19.2591 19.2392 19.4068 19.7891 19.7141C20.0747 19.8739 20.2996 20.0894 20.4287 20.3665C20.5581 20.6445 20.5679 20.9355 20.5127 21.2034C20.4074 21.7131 20.0551 22.2071 19.6797 22.6165C19.3379 22.9891 18.9299 23.338 18.542 23.6301L17.7656 27.0969C19.2181 27.8044 20.6647 28.4205 22.0273 28.7776C23.5037 29.1644 24.8284 29.2344 25.9346 28.8401C27.0185 28.4536 27.9685 27.594 28.6582 25.9573C29.3259 24.3725 29.7386 22.0758 29.7715 18.8372C29.6428 18.7967 29.5124 18.7471 29.3809 18.6858C28.5175 18.2829 27.628 17.4322 26.7031 16.0549C25.5109 14.2794 25.1286 12.4778 25.0049 10.8088C24.9434 9.97912 24.9452 9.17464 24.9443 8.43091C24.9434 7.67873 24.9393 6.99468 24.8721 6.36743C24.7397 5.13187 24.3723 4.19755 23.3555 3.53442C22.3304 2.86602 20.5769 2.4257 17.5488 2.3938ZM17.1924 20.259C16.0397 20.2591 15.4006 20.4095 15.083 20.5872C14.9356 20.6696 14.8822 20.7438 14.8613 20.7883C14.8411 20.8319 14.8291 20.8965 14.8506 21.0012C14.8995 21.2379 15.0981 21.5663 15.4414 21.9407C15.7721 22.3012 16.1883 22.6524 16.582 22.9368C16.6809 23.0082 16.7505 23.1137 16.7773 23.2327L17.1914 25.0842L17.6064 23.2327L17.6338 23.1467C17.6692 23.0634 17.7274 22.9904 17.8018 22.9368C18.1956 22.6524 18.6116 22.3013 18.9424 21.9407C19.2859 21.5662 19.4843 21.2379 19.5332 21.0012C19.5547 20.8964 19.5427 20.8319 19.5225 20.7883C19.5015 20.7437 19.448 20.6695 19.3008 20.5872C18.983 20.4096 18.3445 20.2591 17.1924 20.259ZM29.4961 1.76294C26.7701 0.695941 23.2462 0.865194 20.1816 1.54907C21.8355 1.74789 23.0365 2.13263 23.9014 2.69653C25.2669 3.58706 25.7167 4.86524 25.8662 6.26099C25.94 6.94938 25.9435 7.68628 25.9443 8.42993C25.9452 9.18193 25.9436 9.9489 26.002 10.7356C26.1179 12.2998 26.4698 13.9137 27.5332 15.4973C28.4128 16.8071 29.1774 17.4873 29.8037 17.7795C29.9457 17.8458 30.0821 17.8913 30.2129 17.9211C30.2334 17.9186 30.2542 17.9153 30.2754 17.9153C30.3465 17.9153 30.4143 17.9305 30.4756 17.9573C30.7855 17.9751 31.0654 17.8972 31.3252 17.7493C31.7888 17.4852 32.218 16.9877 32.584 16.3469C32.9458 15.7133 33.2221 14.9811 33.4014 14.3049C34.378 10.4233 34.255 7.62687 33.4805 5.64673C32.7123 3.68312 31.2799 2.46123 29.4961 1.76294ZM14.916 1.54907C11.8515 0.865195 8.32759 0.696074 5.60156 1.76294C3.81769 2.46121 2.38538 3.6831 1.61719 5.64673C0.842608 7.62687 0.719624 10.4232 1.69629 14.3049C1.87555 14.981 2.15188 15.7134 2.51367 16.3469C2.87961 16.9876 3.3089 17.4852 3.77246 17.7493C3.96163 17.8569 4.1617 17.926 4.37598 17.9504C4.46604 17.9147 4.56738 17.9043 4.66895 17.927C4.68985 17.9317 4.70985 17.9395 4.72949 17.9465C4.90697 17.9236 5.09513 17.8723 5.29395 17.7795C5.92021 17.4872 6.68502 16.807 7.56445 15.4973C8.62779 13.9137 8.97972 12.2997 9.0957 10.7356C9.15402 9.9489 9.15244 9.18193 9.15332 8.42993C9.1542 7.68626 9.15769 6.9494 9.23145 6.26099C9.38101 4.86519 9.8306 3.58707 11.1963 2.69653C12.0612 2.1327 13.2623 1.74787 14.916 1.54907Z" fill="white"/>
</svg>
