<svg width="21" height="31" viewBox="0 0 21 31" fill="none" xmlns="http://www.w3.org/2000/svg">
<path d="M10.0388 0C12.7903 8.61874e-05 14.3023 1.97086 14.3464 3.95898C14.3682 4.94648 14.0282 5.94826 13.2966 6.7041C13.2901 6.71088 13.2827 6.7169 13.2761 6.72363C13.3975 6.72928 13.5195 6.73507 13.6414 6.74512C14.9182 6.85046 16.3149 7.21841 17.1843 8.21289C17.9804 9.12375 18.6721 10.5223 19.2097 11.8555C19.7521 13.2006 20.1588 14.5353 20.3689 15.3594C20.3939 15.4576 20.3884 15.5612 20.3533 15.6562C20.1292 16.2606 19.6391 17.1043 18.8562 17.5166C18.4477 17.7317 17.9643 17.8249 17.4314 17.7041C16.9086 17.5855 16.3784 17.2705 15.8425 16.7451C15.7914 16.6948 15.751 16.6334 15.7253 16.5664L14.8464 14.2676V28.458C14.8464 28.5731 14.8059 28.6852 14.7332 28.7744C14.2797 29.3302 13.4244 30.0421 12.4656 30.2783C11.9733 30.3996 11.43 30.4006 10.907 30.1611C10.5881 30.0151 10.2987 29.7895 10.0427 29.4824C9.80137 29.7851 9.53409 30.014 9.23999 30.167C8.74692 30.4233 8.23587 30.4434 7.76929 30.333C6.87093 30.1202 6.09141 29.4195 5.65112 28.8799C5.57841 28.7907 5.53792 28.6785 5.53784 28.5635V14.373L4.65894 16.6719C4.63324 16.7389 4.59299 16.8003 4.54175 16.8506C4.00594 17.3759 3.47566 17.691 2.95288 17.8096C2.42016 17.9302 1.93648 17.8371 1.52808 17.6221C0.74539 17.2097 0.255095 16.366 0.0310059 15.7617C-0.00417349 15.6667 -0.00950714 15.563 0.0153809 15.4648C0.225419 14.6409 0.63216 13.3062 1.17456 11.9609C1.7121 10.6278 2.40395 9.22931 3.19995 8.31836C4.06485 7.32879 5.45531 6.93219 6.73315 6.7998C6.81729 6.7911 6.90208 6.78588 6.98608 6.7793C6.95929 6.75264 6.93192 6.72661 6.90601 6.69922C6.19499 5.94727 5.84667 4.95307 5.84644 3.9707C5.84643 2.9881 6.19487 1.99338 6.90601 1.24121C7.62392 0.482145 8.68281 0 10.0388 0ZM13.5583 7.74219C12.7707 7.67729 11.9749 7.71949 11.3132 7.79688C11.0509 7.85911 10.7729 7.9015 10.4792 7.92285C10.4668 7.92524 10.4543 7.9273 10.4421 7.92969C10.3932 7.93927 10.3448 7.93916 10.2976 7.93457C10.2145 7.93804 10.1302 7.93937 10.0447 7.93945H10.0417L10.0388 7.94043C9.57688 7.94043 9.14979 7.88211 8.75854 7.77832C8.1701 7.73385 7.50028 7.7261 6.83569 7.79492C5.63704 7.91914 4.56468 8.27656 3.95288 8.97656C3.27233 9.75544 2.63121 11.0232 2.10229 12.335C1.61144 13.5524 1.2363 14.763 1.02612 15.5566C1.22548 16.0206 1.56979 16.5137 1.9939 16.7373C2.21077 16.8515 2.45169 16.8981 2.7312 16.835C3.00467 16.773 3.3511 16.5955 3.76636 16.2061L5.57104 11.4863C5.65716 11.2615 5.89185 11.1304 6.12866 11.1738C6.36572 11.2176 6.53775 11.424 6.53784 11.665V28.377C6.91868 28.8034 7.46583 29.2328 7.99976 29.3594C8.27631 29.4248 8.53535 29.4069 8.77905 29.2803C9.01295 29.1585 9.27878 28.911 9.53784 28.4375V20.1143C9.53795 19.8385 9.76214 19.6147 10.0378 19.6143C10.3139 19.6143 10.5377 19.8382 10.5378 20.1143V28.4336C10.7933 28.897 11.0692 29.1356 11.323 29.252C11.5946 29.3763 11.8983 29.3884 12.2263 29.3076C12.8447 29.1553 13.4626 28.6893 13.8464 28.2686V11.5596C13.8467 11.3187 14.0187 11.1122 14.2556 11.0684C14.4924 11.0247 14.727 11.1561 14.8132 11.3809L16.6179 16.1006C17.0332 16.4901 17.3796 16.6674 17.6531 16.7295C17.9328 16.7928 18.1734 16.7461 18.3904 16.6318C18.8146 16.4083 19.1588 15.9152 19.3582 15.4512C19.1479 14.6574 18.7729 13.4469 18.282 12.2295C17.753 10.9177 17.112 9.64988 16.4314 8.87109C15.8239 8.17631 14.7579 7.84112 13.5583 7.74219ZM10.0388 1C8.93329 1 8.14544 1.38549 7.63257 1.92773C7.11336 2.47682 6.84643 3.21849 6.84644 3.9707C6.84667 4.72267 7.11346 5.46383 7.63257 6.0127C7.95204 6.35036 8.37854 6.62633 8.92163 6.78711C9.35868 6.8232 9.7525 6.87865 10.075 6.93945C10.1742 6.93879 10.2708 6.93374 10.365 6.92773C10.5875 6.88663 10.8429 6.84781 11.1218 6.81348C11.7524 6.65649 12.2324 6.36564 12.5789 6.00781C13.1063 5.46264 13.3628 4.7285 13.3464 3.98145C13.3136 2.49949 12.2101 1.00008 10.0388 1Z" fill="white"/>
</svg>
