<svg width="16" height="16" viewBox="0 0 16 16" fill="none" xmlns="http://www.w3.org/2000/svg">
<path d="M6.30273 0C9.78371 0 12.6063 2.8218 12.6064 6.30273L12.5977 6.62695C12.5296 7.97155 12.0392 9.20431 11.2578 10.1973L15.5605 14.5C15.8533 14.7929 15.8534 15.2677 15.5605 15.5605C15.2677 15.8533 14.7929 15.8532 14.5 15.5605L10.1973 11.2578C9.12506 12.1018 7.77311 12.6064 6.30273 12.6064L5.97852 12.5977C2.64826 12.4287 0 9.67497 0 6.30273C0.000175483 2.82191 2.82191 0.000175486 6.30273 0ZM6.30273 1.5C3.65034 1.50018 1.50018 3.65034 1.5 6.30273C1.5 8.95528 3.65023 11.1063 6.30273 11.1064C8.95539 11.1064 11.1064 8.95539 11.1064 6.30273C11.1063 3.65023 8.95528 1.5 6.30273 1.5Z" fill="white"/>
</svg>
