<svg width="38" height="18" viewBox="0 0 38 18" fill="none" xmlns="http://www.w3.org/2000/svg">
<path d="M36.9297 13.2646C37.2057 13.2648 37.4297 13.4886 37.4297 13.7646C37.4297 14.0407 37.2057 14.2645 36.9297 14.2646C36.6991 14.2647 36.4418 14.3779 36.0938 14.6533C35.7342 14.9379 35.3939 15.2934 34.9248 15.7217C34.0268 16.5417 32.8379 17.4414 31.042 17.4414C30.1652 17.4414 29.5365 17.2587 29.0352 16.9551C28.5508 16.6617 28.2157 16.2685 27.9297 15.9541C27.6338 15.6289 27.3654 15.3559 26.9727 15.1514C26.5832 14.9486 26.0311 14.794 25.1553 14.7939C24.2791 14.794 23.7264 14.9486 23.3369 15.1514C22.9441 15.3559 22.6758 15.6289 22.3799 15.9541C22.0938 16.2685 21.7588 16.6617 21.2744 16.9551C20.773 17.2587 20.1444 17.4414 19.2676 17.4414C18.3907 17.4414 17.7621 17.2587 17.2607 16.9551C16.7762 16.6616 16.4404 16.2686 16.1543 15.9541C15.8585 15.629 15.5909 15.3558 15.1982 15.1514C14.8087 14.9486 14.256 14.7939 13.3799 14.7939C12.5057 14.794 11.9114 14.948 11.4609 15.1602C11.0053 15.3748 10.6666 15.6621 10.3027 15.9893C9.94865 16.3077 9.54982 16.6853 9.02637 16.9678C8.48729 17.2586 7.83591 17.4414 6.95801 17.4414C5.49003 17.4414 4.43217 16.6759 3.55371 16.0176C2.62843 15.3242 1.94058 14.7939 1.07031 14.7939C0.794221 14.7939 0.570312 14.5701 0.570312 14.2939C0.570405 14.0179 0.794278 13.794 1.07031 13.7939C2.34081 13.7939 3.31247 14.5877 4.15332 15.2178C5.04093 15.8829 5.85718 16.4414 6.95801 16.4414C7.68512 16.4414 8.17115 16.2932 8.55176 16.0879C8.9481 15.874 9.25207 15.5894 9.63379 15.2461C10.0057 14.9117 10.4363 14.5365 11.0342 14.2549C11.6373 13.9708 12.3813 13.794 13.3799 13.7939C14.3769 13.7939 15.0964 13.9712 15.6602 14.2646C16.2204 14.5564 16.5884 14.9448 16.8945 15.2812C17.2103 15.6283 17.4437 15.8968 17.7783 16.0996C18.0964 16.2923 18.5389 16.4414 19.2676 16.4414C19.996 16.4414 20.4378 16.2922 20.7559 16.0996C21.0907 15.8968 21.3247 15.6285 21.6406 15.2812C21.9468 14.9448 22.3147 14.5564 22.875 14.2646C23.4388 13.9711 24.1583 13.794 25.1553 13.7939C26.152 13.794 26.8709 13.9712 27.4346 14.2646C27.9949 14.5564 28.3628 14.9448 28.6689 15.2812C28.9849 15.6285 29.2189 15.8968 29.5537 16.0996C29.8718 16.2922 30.3135 16.4414 31.042 16.4414C32.4573 16.4414 33.4096 15.7516 34.251 14.9834C34.6513 14.6178 35.0808 14.18 35.4736 13.8691C35.8781 13.5491 36.3576 13.2647 36.9297 13.2646ZM36.9297 6.91211C37.2057 6.91223 37.4297 7.13604 37.4297 7.41211C37.4295 7.68802 37.2056 7.91199 36.9297 7.91211C36.6991 7.91215 36.4418 8.02533 36.0938 8.30078C35.7343 8.58531 35.3938 8.94092 34.9248 9.36914C34.0268 10.1891 32.8378 11.0889 31.042 11.0889C30.1653 11.0888 29.5365 10.9061 29.0352 10.6025C28.5508 10.3092 28.2157 9.91595 27.9297 9.60156C27.6338 9.27633 27.3654 9.00333 26.9727 8.79883C26.5832 8.59607 26.0312 8.44146 25.1553 8.44141C24.2791 8.44142 23.7264 8.59604 23.3369 8.79883C22.9442 9.00332 22.6757 9.27639 22.3799 9.60156C22.0939 9.91594 21.7587 10.3092 21.2744 10.6025C20.7731 10.9061 20.1443 11.0889 19.2676 11.0889C18.3908 11.0889 17.7621 10.9062 17.2607 10.6025C16.7762 10.3091 16.4404 9.91602 16.1543 9.60156C15.8585 9.27646 15.5909 9.00328 15.1982 8.79883C14.8087 8.59603 14.2561 8.44141 13.3799 8.44141C12.5057 8.44145 11.9114 8.59547 11.4609 8.80762C11.0054 9.02222 10.6666 9.30956 10.3027 9.63672C9.9487 9.95509 9.54973 10.3329 9.02637 10.6152C8.48732 10.906 7.83582 11.0888 6.95801 11.0889C5.49008 11.0888 4.43215 10.3233 3.55371 9.66504C2.62838 8.97163 1.94061 8.44141 1.07031 8.44141C0.794336 8.44135 0.570499 8.21735 0.570312 7.94141C0.570375 7.66535 0.794259 7.44147 1.07031 7.44141C2.34086 7.44141 3.31245 8.23512 4.15332 8.86523C5.0409 9.53034 5.85722 10.0888 6.95801 10.0889C7.68501 10.0888 8.17118 9.94063 8.55176 9.73535C8.94803 9.52154 9.25216 9.23674 9.63379 8.89355C10.0057 8.55915 10.4364 8.18399 11.0342 7.90234C11.6373 7.61826 12.3813 7.44145 13.3799 7.44141C14.3769 7.44141 15.0964 7.61859 15.6602 7.91211C16.2204 8.2039 16.5884 8.59228 16.8945 8.92871C17.2103 9.27572 17.4437 9.54433 17.7783 9.74707C18.0964 9.9397 18.539 10.0889 19.2676 10.0889C19.9959 10.0889 20.4378 9.93959 20.7559 9.74707C21.0907 9.5443 21.3248 9.27584 21.6406 8.92871C21.9467 8.59229 22.3147 8.2039 22.875 7.91211C23.4388 7.6186 24.1583 7.44142 25.1553 7.44141C26.1521 7.44146 26.8709 7.61863 27.4346 7.91211C27.9949 8.20391 28.3628 8.59225 28.6689 8.92871C28.9848 9.27591 29.2189 9.54428 29.5537 9.74707C29.8718 9.93964 30.3136 10.0888 31.042 10.0889C32.4572 10.0889 33.4096 9.39903 34.251 8.63086C34.6513 8.26535 35.0808 7.8275 35.4736 7.5166C35.8781 7.19652 36.3576 6.91215 36.9297 6.91211ZM36.9297 0.558594C37.2057 0.558713 37.4296 0.782631 37.4297 1.05859C37.4297 1.33466 37.2057 1.55847 36.9297 1.55859C36.6991 1.55863 36.4418 1.67184 36.0938 1.94727C35.7342 2.23181 35.3939 2.58733 34.9248 3.01562C34.0268 3.83561 32.8379 4.73535 31.042 4.73535C30.1652 4.73532 29.5365 4.55265 29.0352 4.24902C28.5508 3.95561 28.2157 3.56242 27.9297 3.24805C27.6338 2.92288 27.3654 2.64978 26.9727 2.44531C26.5832 2.2426 26.0311 2.08794 25.1553 2.08789C24.2791 2.0879 23.7264 2.24252 23.3369 2.44531C22.9441 2.6498 22.6758 2.92284 22.3799 3.24805C22.0938 3.56246 21.7588 3.9556 21.2744 4.24902C20.773 4.55267 20.1444 4.73534 19.2676 4.73535C18.3907 4.73534 17.7621 4.55267 17.2607 4.24902C16.7762 3.95554 16.4404 3.56248 16.1543 3.24805C15.8585 2.92301 15.5908 2.64973 15.1982 2.44531C14.8087 2.24256 14.256 2.08789 13.3799 2.08789C12.5057 2.08794 11.9114 2.24195 11.4609 2.4541C11.0053 2.66871 10.6666 2.95601 10.3027 3.2832C9.94865 3.60161 9.54984 3.97928 9.02637 4.26172C8.48727 4.55255 7.83594 4.7353 6.95801 4.73535C5.49003 4.73531 4.43217 3.96981 3.55371 3.31152C2.62847 2.61818 1.94055 2.08789 1.07031 2.08789C0.794221 2.08783 0.570312 1.864 0.570312 1.58789C0.570499 1.31194 0.794336 1.08795 1.07031 1.08789C2.34077 1.08789 3.31249 1.88162 4.15332 2.51172C5.04093 3.17686 5.85718 3.73531 6.95801 3.73535C7.68516 3.7353 8.17115 3.58718 8.55176 3.38184C8.94811 3.16799 9.25206 2.88331 9.63379 2.54004C10.0057 2.2056 10.4363 1.83048 11.0342 1.54883C11.6373 1.26475 12.3813 1.08794 13.3799 1.08789C14.3768 1.08789 15.0964 1.26513 15.6602 1.55859C16.2204 1.85033 16.5885 2.2388 16.8945 2.5752C17.2103 2.92221 17.4438 3.1908 17.7783 3.39355C18.0964 3.58621 18.5389 3.73534 19.2676 3.73535C19.9961 3.73534 20.4378 3.58615 20.7559 3.39355C21.0907 3.19074 21.3247 2.92243 21.6406 2.5752C21.9467 2.23875 22.3147 1.85037 22.875 1.55859C23.4388 1.26509 24.1583 1.0879 25.1553 1.08789C26.152 1.08794 26.8709 1.26517 27.4346 1.55859C27.9949 1.85035 28.3628 2.23876 28.6689 2.5752C28.9848 2.92239 29.2189 3.19075 29.5537 3.39355C29.8718 3.58615 30.3135 3.73532 31.042 3.73535C32.4573 3.73535 33.4096 3.0456 34.251 2.27734C34.6513 1.91177 35.0808 1.47398 35.4736 1.16309C35.8781 0.843023 36.3576 0.55863 36.9297 0.558594Z" fill="white"/>
</svg>
