<svg width="33" height="30" viewBox="0 0 33 30" fill="none" xmlns="http://www.w3.org/2000/svg">
<path d="M16.8295 0.181641C25.4166 0.181774 32.019 5.07335 32.7543 12.2217C32.9835 14.4509 32.3338 16.149 31.1722 17.3955C30.0266 18.6247 28.4177 19.3785 26.7767 19.8184C24.8536 20.3337 23.2947 20.4347 21.7836 20.3369C22.2567 21.9102 22.2118 24.0079 21.5443 25.8145C20.7477 27.9701 19.0185 29.8182 16.1283 29.8184C13.716 29.8183 12.1253 27.9264 11.3636 25.8232C10.6959 23.9791 10.5915 21.7927 11.1908 20.1738C9.78124 19.9535 8.01781 19.5362 6.32361 18.875C4.78166 18.2732 3.26603 17.4586 2.1283 16.3857C0.983606 15.3061 0.201538 13.9428 0.201538 12.2725C0.201695 8.98697 2.26175 5.9558 5.3197 3.76953C8.38576 1.57763 12.5195 0.18169 16.8295 0.181641ZM16.8295 17.5449C15.258 17.545 14.234 18.0195 13.5638 18.5459C12.8861 19.0785 12.5395 19.6882 12.3588 20.0146C11.6331 21.325 11.6045 23.5514 12.3041 25.4834C13.0034 27.414 14.3335 28.8183 16.1283 28.8184C18.4821 28.8182 19.9097 27.3542 20.6068 25.4678C21.3148 23.5514 21.2191 21.3081 20.5863 19.9893C20.3879 19.5759 20.2295 19.0228 19.7172 18.5049C19.2349 18.0174 18.3998 17.545 16.8295 17.5449ZM16.8295 14.8184C12.0556 14.8184 8.80029 16.8525 7.38416 18.1992C8.91053 18.7297 10.4492 19.0623 11.6566 19.2314C11.8964 18.8363 12.297 18.2695 12.9457 17.7598C13.7939 17.0934 15.0361 16.545 16.8295 16.5449C18.6245 16.545 19.7301 17.0962 20.4281 17.8018C20.9459 18.3252 21.2202 18.9302 21.3773 19.3008C22.7653 19.4297 24.1509 19.3994 25.8422 19.0176C24.6331 17.3701 21.6352 14.8185 16.8295 14.8184ZM16.8295 1.18164C12.7253 1.18169 8.79491 2.51397 5.90076 4.58301C2.99869 6.65791 1.2017 9.42195 1.20154 12.2725C1.20154 13.5969 1.81167 14.713 2.81384 15.6582C3.74853 16.5397 5.00769 17.2516 6.36267 17.8105C7.77495 16.288 11.4133 13.8184 16.8295 13.8184C22.296 13.8185 25.65 16.8804 26.8724 18.7471C28.2725 18.3271 29.5449 17.6751 30.4408 16.7139C31.396 15.6888 31.9604 14.2799 31.7592 12.3232C31.0915 5.8359 25.071 1.18177 16.8295 1.18164Z" fill="white"/>
</svg>
