<svg width="11" height="31" viewBox="0 0 11 31" fill="none" xmlns="http://www.w3.org/2000/svg">
<path d="M5.49902 26.5654C6.51842 26.5654 7.34549 27.446 7.3457 28.5322C7.3457 29.6187 6.51855 30.5 5.49902 30.5C4.47964 30.4998 3.65332 29.6186 3.65332 28.5322C3.65353 27.4461 4.47977 26.5656 5.49902 26.5654ZM5.5 0C6.60339 0 7.52605 0.27167 8.26758 0.793945C9.00713 1.31487 9.52886 2.05925 9.87988 2.94043C10.5742 4.68356 10.6261 7.03495 10.3262 9.55859C9.72392 14.6258 7.66615 20.6758 5.95996 24.6953C5.88155 24.88 5.70062 25 5.5 25C5.29938 25 5.11845 24.88 5.04004 24.6953C3.33385 20.6758 1.27608 14.6258 0.673828 9.55859C0.373921 7.03495 0.425822 4.68356 1.12012 2.94043C1.47114 2.05925 1.99287 1.31487 2.73242 0.793945C3.47395 0.271669 4.39661 1.21318e-06 5.5 0ZM5.5 1C4.56591 1 3.85376 1.22833 3.30859 1.6123C2.76176 1.99754 2.34505 2.56614 2.04883 3.30957C1.44861 4.81631 1.3727 6.96534 1.66699 9.44141C2.20073 13.9316 3.92135 19.2644 5.5 23.1875C7.07866 19.2644 8.79927 13.9316 9.33301 9.44141C9.6273 6.96534 9.55139 4.81631 8.95117 3.30957C8.65495 2.56614 8.23824 1.99754 7.69141 1.6123C7.14624 1.22833 6.43409 1 5.5 1Z" fill="white"/>
</svg>
