<svg width="34" height="30" viewBox="0 0 34 30" fill="none" xmlns="http://www.w3.org/2000/svg">
<path d="M17.3906 0.471436C18.3332 0.471716 19.171 1.08781 19.9199 2.073C21.0463 1.7218 21.9548 1.71665 22.6318 2.10034C23.3973 2.53442 23.6913 3.35936 23.7588 4.19995C23.8268 5.04842 23.6779 6.03017 23.4404 6.96948C23.2221 7.83299 22.9189 8.68803 22.6143 9.41772C22.7318 9.6826 22.8436 9.96944 22.9473 10.2712L27.0889 7.61108L28.6045 1.04663C28.6666 0.777563 28.935 0.609573 29.2041 0.671631C29.473 0.733833 29.6402 1.00226 29.5781 1.27124L28.0186 8.03491C27.9891 8.16156 27.9111 8.27215 27.8018 8.34253L23.2344 11.2742C23.3413 11.7303 23.4188 12.2043 23.4512 12.6824H30.3262L32.5352 7.71948C32.6474 7.46719 32.943 7.35335 33.1953 7.46558C33.4475 7.57786 33.5605 7.87346 33.4482 8.12573L31.1084 13.3865C31.028 13.5666 30.8487 13.6824 30.6514 13.6824H24.5205C32.2768 19.5313 32.8108 25.7389 31.9053 28.3748C31.8464 28.5459 31.6985 28.6716 31.5205 28.7039C27.4616 29.4369 24.537 28.5806 22.4951 26.9431C21.0891 28.5318 19.2504 29.3453 17.3984 29.3455C15.5664 29.3455 13.7601 28.549 12.3857 26.9919C9.10587 30.3219 4.81388 29.7983 2.35938 28.6658C2.231 28.6065 2.13294 28.496 2.09082 28.3611C0.836212 24.3323 3.15137 20.3858 5.69141 17.5457C6.97632 16.1091 8.355 14.9141 9.45508 14.0769C9.64135 13.9352 9.82066 13.8039 9.99023 13.6824H3.34863C3.15132 13.6824 2.97202 13.5666 2.8916 13.3865L0.551758 8.12573C0.439523 7.87346 0.552453 7.57786 0.804688 7.46558C1.05696 7.35342 1.35261 7.46722 1.46484 7.71948L3.67383 12.6824H11.1494C11.2118 12.6824 11.2711 12.6946 11.3262 12.7156C11.3585 12.2046 11.4417 11.6973 11.5586 11.2117C11.4059 11.4317 11.1061 11.494 10.8789 11.3484L6.19824 8.34253C6.0889 8.27216 6.01089 8.16155 5.98145 8.03491L4.42188 1.27124C4.35983 1.00226 4.527 0.733833 4.7959 0.671631C5.06493 0.60964 5.33344 0.777598 5.39551 1.04663L6.91113 7.61108L11.4199 10.5076C11.5532 10.5935 11.6299 10.7322 11.6445 10.8787C11.7905 10.3513 11.9712 9.85561 12.165 9.4187C11.4322 7.68759 11.061 6.32624 10.9688 5.26245C10.8731 4.15764 11.073 3.3198 11.541 2.74194C12.0129 2.15951 12.6848 1.92941 13.3369 1.88843C13.8511 1.85619 14.3802 1.93898 14.8584 2.07593C15.6078 1.0889 16.4469 0.471439 17.3906 0.471436ZM11.3574 13.9656C11.0205 14.1751 10.574 14.4811 10.0605 14.8718C9.00085 15.6783 7.6715 16.8318 6.43652 18.2126C3.98721 20.9513 2.04249 24.4318 2.98438 27.8494C5.33004 28.8498 9.19315 29.1555 12.0332 25.907C13.4357 24.3024 14.6259 21.7937 15.2578 17.9822C13.8859 17.6846 12.9116 17.0818 12.2715 16.2664C11.7336 15.5812 11.4594 14.7816 11.3574 13.9656ZM16.2461 18.1355C15.632 21.8473 14.4889 24.4592 13.0547 26.2419C14.2589 27.6556 15.8341 28.3455 17.3984 28.3455C18.9492 28.3453 20.5239 27.6654 21.752 26.2742C19.4211 23.9359 18.5764 20.574 18.4648 18.1414C18.1266 18.1727 17.7688 18.1911 17.3906 18.1912C16.9863 18.1912 16.6048 18.1712 16.2461 18.1355ZM23.4033 14.0964C23.2889 14.8666 23.0177 15.618 22.5088 16.2664C21.8587 17.0944 20.8638 17.7034 19.458 17.9958C19.5468 20.3939 20.4092 23.7347 22.7705 25.865C24.5155 27.4392 27.1365 28.4049 31.041 27.7703C31.6678 25.3949 31.088 19.6371 23.4033 14.0964ZM13.0352 9.92554C12.6343 10.8596 12.3076 12.0453 12.3086 13.1824C12.3095 14.1124 12.5281 14.9734 13.0586 15.6492C13.5837 16.3178 14.4625 16.8654 15.9062 17.0867C16.347 17.1542 16.8405 17.1912 17.3906 17.1912C17.9408 17.1911 18.4343 17.1542 18.875 17.0867C20.3185 16.8653 21.1977 16.3178 21.7227 15.6492C22.1935 15.0493 22.4168 14.3033 22.4619 13.4929C22.3935 13.4074 22.3506 13.3004 22.3506 13.1824C22.3507 13.0642 22.3933 12.9565 22.4619 12.8708C22.4108 11.8315 22.1105 10.7745 21.7461 9.92554H13.0352ZM17.3906 1.47144C16.8673 1.47144 16.2168 1.85479 15.4609 2.94702C15.3318 3.13327 15.0931 3.20946 14.8799 3.13257C14.4037 2.96063 13.8726 2.85681 13.3994 2.88647C12.9305 2.91595 12.5615 3.07178 12.3184 3.37183C12.0714 3.67685 11.882 4.22015 11.9648 5.17651C12.043 6.07823 12.3624 7.29876 13.043 8.92554H21.7363C22.0094 8.25868 22.2776 7.49184 22.4717 6.72437C22.6972 5.83226 22.8182 4.97183 22.7627 4.28003C22.7065 3.58083 22.4827 3.16562 22.1387 2.97046C21.7762 2.76506 21.1025 2.69841 19.9004 3.13257C19.6871 3.20949 19.4484 3.13349 19.3193 2.94702C18.5635 1.85499 17.9139 1.47175 17.3906 1.47144Z" fill="white"/>
</svg>
