<svg width="39" height="30" viewBox="0 0 39 30" fill="none" xmlns="http://www.w3.org/2000/svg">
<path d="M25.6328 11.4607C27.7124 10.6924 30.1937 10.6136 32.4805 11.4304C37.0481 13.0623 39.4922 17.3398 38.3867 21.8376C38.0407 23.2452 37.3386 24.182 36.4375 24.7449C35.5484 25.3 34.5133 25.4615 33.541 25.4216C32.5359 25.3803 31.7482 25.1905 31.0342 24.905C30.9066 25.9163 30.4579 27.0772 29.7832 27.9841C28.9206 29.1435 27.5607 30.0389 25.9121 29.45C24.4955 28.9435 24.0739 27.3574 24.1123 25.9636C24.1449 24.7829 24.504 23.5005 25.1055 22.6091C24.4489 22.2134 23.6914 21.6679 23.0059 21.0095C21.6552 19.7122 20.4236 17.8165 21.1396 15.7224C21.8302 13.7037 23.5564 12.2279 25.6328 11.4607ZM28.7959 22.2068C27.3511 21.6906 26.5281 22.5071 26.2178 22.822C25.609 23.4399 25.1425 24.734 25.1074 26.0017C25.0716 27.3003 25.4813 28.2338 26.2363 28.5037C27.2951 28.8818 28.2455 28.3695 28.9844 27.3767C29.7276 26.3777 30.1265 25.0421 30.0732 24.1736C30.0541 23.8616 30.0853 23.5456 29.9414 23.1765C29.8162 22.8554 29.5361 22.4713 28.7959 22.2068ZM32.1572 12.3767C30.0996 11.6416 27.8564 11.712 25.9834 12.4041C24.1075 13.0972 22.6522 14.3924 22.082 16.0593C21.5679 17.563 22.4041 19.0531 23.6875 20.2859C24.3757 20.9468 25.1492 21.4869 25.7842 21.8523C26.3307 21.3773 27.4506 20.6645 29.1191 21.2605C30.1165 21.6168 30.6281 22.2048 30.8672 22.8181C31.0119 23.1894 31.0461 23.5674 31.0566 23.8279C31.7694 24.1567 32.5278 24.3758 33.5713 24.4187C34.4163 24.4534 35.2368 24.3081 35.9072 23.8894C36.5656 23.4782 37.1283 22.7727 37.4199 21.5867C38.3913 17.6343 36.2787 13.8492 32.1572 12.3767ZM7.29102 1.31421C12.402 -0.889377 17.69 0.826347 20.1318 5.51343C20.8942 6.97688 20.9989 8.31342 20.6602 9.48706C20.3254 10.6467 19.5745 11.5922 18.7197 12.321C17.8026 13.103 16.9647 13.5644 16.1133 13.8835C16.7897 14.8421 17.3052 16.2179 17.417 17.5544C17.5557 19.214 17.0737 21.0114 15.2617 21.7927C13.7159 22.4591 12.1878 21.4731 11.1689 20.2546C10.2891 19.2023 9.62313 17.7959 9.48438 16.5554C8.61385 16.7441 7.52641 16.8864 6.41309 16.865C4.28188 16.8239 1.83459 16.1783 0.878906 13.863C-0.0489685 11.6146 0.303926 9.00966 1.49219 6.72437C2.68211 4.43604 4.73241 2.41741 7.29102 1.31421ZM14.0225 13.238C13.6508 13.0516 13.0959 12.9442 12.2422 13.3123C11.384 13.6824 10.9567 14.219 10.7314 14.7058C10.4998 15.2065 10.469 15.6821 10.4551 15.948C10.4007 16.9844 10.9925 18.4794 11.9307 19.6013C12.8881 20.7463 13.9796 21.2575 14.8809 20.8689C16.1189 20.3349 16.548 19.1004 16.4268 17.6501C16.3048 16.1923 15.6285 14.7166 14.9102 14.0007C14.6656 13.7571 14.4395 13.4472 14.0225 13.238ZM19.252 5.98999C17.0697 1.80105 12.3502 0.222438 7.67285 2.23901C5.33745 3.24598 3.45791 5.09444 2.37109 7.18433C1.2828 9.27735 1.01128 11.5625 1.79688 13.4666C2.51405 15.2043 4.4022 15.8207 6.44238 15.8601C7.56167 15.8817 8.66002 15.7238 9.49219 15.5271C9.53011 15.1987 9.61629 14.7541 9.83203 14.2878C10.1566 13.5865 10.762 12.8614 11.8613 12.3875C12.9647 11.9119 13.8238 12.0109 14.4717 12.3357C14.8893 12.5451 15.2084 12.8547 15.4111 13.0691C16.2959 12.7832 17.1332 12.3661 18.084 11.5554C18.8412 10.9097 19.4438 10.123 19.7061 9.2146C19.9641 8.32025 19.9087 7.25107 19.252 5.98999Z" fill="white"/>
</svg>
