<svg width="55" height="30" viewBox="0 0 55 30" fill="none" xmlns="http://www.w3.org/2000/svg">
<path d="M39.9003 0.289795C40.0869 0.291701 40.2574 0.397668 40.3417 0.564209L44.6571 9.09058L54.7284 28.9851C54.8065 29.1399 54.7986 29.3246 54.7079 29.4724C54.6169 29.6202 54.4556 29.7106 54.2821 29.7107H30.2118H30.2108H0.718628C0.543364 29.7105 0.380254 29.6187 0.289917 29.4685C0.199636 29.3183 0.195199 29.1312 0.277222 28.9763L10.7675 9.23901L15.3827 0.55542C15.4702 0.3907 15.6434 0.288114 15.83 0.289795C16.0165 0.291795 16.1861 0.397745 16.2704 0.564209L20.5868 9.09058L27.577 22.9001L34.8378 9.23901L39.454 0.55542L39.4901 0.49585C39.5843 0.365943 39.737 0.288167 39.9003 0.289795ZM16.2001 14.5417C16.108 14.6458 15.9757 14.7072 15.8368 14.7107C15.6979 14.7139 15.5636 14.6588 15.4667 14.5593L11.328 10.3132L1.55066 28.7107H29.3983L20.0272 10.2L16.2001 14.5417ZM40.2704 14.5417C40.1784 14.6459 40.0469 14.7071 39.9081 14.7107C39.7691 14.7142 39.6341 14.6588 39.537 14.5593L35.3993 10.3123L28.1669 23.9197L30.5233 28.7107H53.4686L44.0985 10.199L40.2704 14.5417ZM11.8212 9.3855L15.8055 13.4753L19.5409 9.23901L15.8134 1.87476L11.8212 9.3855ZM35.8915 9.3855L39.8768 13.4753L43.6112 9.23804L39.8837 1.87476L35.8915 9.3855Z" fill="white"/>
</svg>
