<svg width="21" height="31" viewBox="0 0 21 31" fill="none" xmlns="http://www.w3.org/2000/svg">
<path d="M6.52795 0.804688C9.30315 -0.411908 12.6885 -0.479395 16.2037 2.23145C18.3775 3.90789 19.5078 5.71036 19.902 7.54688C20.2942 9.37513 19.9436 11.1728 19.2789 12.8203C18.6151 14.4659 17.625 15.9936 16.6998 17.2969C15.7529 18.6308 14.9169 19.6758 14.4655 20.459C14.0329 21.2096 13.7542 22.0823 13.4928 23.0254C13.2368 23.949 12.9936 24.9581 12.6315 25.8857C12.265 26.8243 11.7616 27.726 10.9547 28.4541C10.1438 29.1857 9.05943 29.7126 7.58069 29.957C6.10377 30.2011 4.89671 30.053 3.91272 29.6338C2.92956 29.2148 2.20522 28.5396 1.6676 27.7871C0.608908 26.305 0.239683 24.4605 0.0152588 23.5703C-0.0521188 23.3026 0.109869 23.0314 0.377563 22.9639C0.645222 22.8965 0.916474 23.0585 0.984009 23.3262C1.22619 24.2867 1.557 25.9124 2.48108 27.2061C2.93492 27.8413 3.52345 28.381 4.30432 28.7139C5.08472 29.0464 6.09494 29.1883 7.4176 28.9697C8.73837 28.7514 9.63751 28.295 10.2848 27.7109C10.9359 27.1234 11.3664 26.3765 11.6998 25.5225C12.0376 24.6573 12.26 23.7281 12.5289 22.7578C12.7925 21.8069 13.0986 20.8286 13.5992 19.96C14.0811 19.124 14.9944 17.9715 15.8844 16.7178C16.7965 15.4329 17.7318 13.9816 18.3512 12.4463C18.9698 10.9129 19.2612 9.32632 18.9244 7.75684C18.5894 6.1957 17.6189 4.58559 15.5934 3.02344C12.3894 0.552544 9.3968 0.639528 6.9303 1.7207C4.42549 2.81879 2.44054 4.95858 1.38733 6.59961C1.23816 6.83177 0.928226 6.89896 0.695923 6.75C0.463638 6.60082 0.396417 6.29094 0.545532 6.05859C1.66995 4.30674 3.79126 2.00456 6.52795 0.804688ZM7.22131 3.94141C9.08058 3.12865 11.4011 3.22708 13.8571 4.99805C16.1322 6.63884 16.4043 9.04197 15.8834 11.2549C15.3665 13.4502 14.0591 15.5539 13.0182 16.8242C12.8433 17.0376 12.5286 17.0691 12.3151 16.8945C12.1015 16.7195 12.0698 16.404 12.2448 16.1904C13.2258 14.9932 14.4389 13.0256 14.9098 11.0264C15.3764 9.04459 15.1027 7.12885 13.2721 5.80859C11.0755 4.22476 9.12696 4.19941 7.6217 4.85742C6.34675 5.41484 5.34555 6.48298 4.76819 7.62695C6.09974 7.60057 7.18127 7.90542 8.04065 8.46875C9.06897 9.14297 9.72451 10.1502 10.1207 11.2617C10.9057 13.4642 10.7169 16.1843 10.3209 18.002C10.2708 18.2314 10.0675 18.3953 9.83264 18.3955C9.53989 18.3955 9.36487 18.4434 9.23206 18.5156C9.09294 18.5913 8.95348 18.7187 8.76721 18.9561C8.57561 19.2002 8.37247 19.5095 8.07776 19.9365C7.7895 20.3542 7.43175 20.8568 6.95471 21.4482C6.40778 22.1262 5.74917 22.4414 5.08557 22.4512C4.43918 22.4606 3.85393 22.1797 3.42932 21.7939C3.00988 21.4128 2.69581 20.8811 2.65491 20.3252C2.63406 20.0408 2.68572 19.7463 2.83948 19.4766C2.99376 19.2061 3.23386 18.9895 3.54358 18.8359C4.14064 18.54 4.70132 17.8153 5.16565 16.9248C5.54481 16.1975 5.82248 15.4235 5.99084 14.8477C5.43339 14.3998 4.74415 13.7021 4.19397 12.8301C3.54405 11.7997 3.06219 10.4839 3.27112 9.0332C3.31953 8.69737 3.40347 8.35603 3.51917 8.01758C4.0755 6.39042 5.39488 4.73993 7.22131 3.94141ZM7.4928 9.30469C6.75395 8.82034 5.74765 8.54266 4.37268 8.64551C4.32359 8.82563 4.28529 9.00298 4.26038 9.17578C4.09623 10.3157 4.46973 11.3919 5.04065 12.2969C5.61249 13.2031 6.35754 13.8973 6.85413 14.249C7.02245 14.3684 7.10085 14.5792 7.05042 14.7793C6.88702 15.4275 6.54755 16.4369 6.05237 17.3867C5.56804 18.3157 4.88407 19.2871 3.98792 19.7314C3.83094 19.8092 3.75024 19.897 3.70764 19.9717C3.66476 20.047 3.64372 20.139 3.65198 20.252C3.66965 20.4911 3.82178 20.7989 4.10217 21.0537C4.37754 21.3038 4.72598 21.4562 5.07092 21.4512C5.39877 21.4463 5.79045 21.2987 6.17639 20.8203C6.63211 20.2553 6.97414 19.7745 7.25452 19.3682C7.52841 18.9713 7.76333 18.6151 7.9801 18.3389C8.20195 18.0562 8.44184 17.8078 8.75452 17.6377C8.95985 17.5261 9.17867 17.4581 9.41663 17.4238C9.73659 15.7193 9.82701 13.4178 9.17834 11.5977C8.83385 10.6313 8.29179 9.82856 7.4928 9.30469Z" fill="white"/>
</svg>
