<svg width="32" height="30" viewBox="0 0 32 30" fill="none" xmlns="http://www.w3.org/2000/svg">
<path d="M23.1178 0.585205C23.3937 0.585466 23.6178 0.809224 23.6178 1.08521V4.01489C23.6178 4.14486 23.5677 4.27026 23.4772 4.36353L21.3414 6.56079C21.3384 6.56386 21.3337 6.56563 21.3307 6.5686C21.3754 6.64897 21.4204 6.72908 21.4615 6.81079C22.3657 8.60646 22.4526 10.7305 22.2662 12.137C22.2539 12.2299 22.2141 12.3117 22.1598 12.3801C22.3388 12.5361 22.5118 12.6984 22.6793 12.8655L25.2311 9.91235L25.2897 9.85474C25.3525 9.80256 25.4276 9.7659 25.5084 9.74927L30.8463 8.65161C31.1167 8.59612 31.3815 8.7699 31.4371 9.04028C31.4924 9.31034 31.3184 9.57418 31.0485 9.63013L25.8776 10.6936L23.3571 13.6106C23.5077 13.7945 23.6511 13.9834 23.7867 14.177L28.1783 14.8723C28.3221 14.8951 28.4495 14.98 28.526 15.1038L31.0172 19.1321C31.1619 19.3668 31.0887 19.6745 30.8541 19.8196C30.6194 19.9646 30.3119 19.892 30.1666 19.6575L27.7955 15.8245L24.4528 15.2952C24.6623 15.7154 24.8374 16.1507 24.9684 16.5999C25.5443 18.5759 25.2957 20.7689 23.8317 22.8831C23.6968 23.0779 23.5487 23.2693 23.3932 23.4622L25.569 26.6604L31.1002 28.4397C31.3629 28.5244 31.508 28.8068 31.4235 29.0696C31.3388 29.332 31.0571 29.4759 30.7946 29.3918L25.1002 27.5608C24.9945 27.5267 24.9031 27.4582 24.8405 27.3665L22.7096 24.2336C21.1584 25.8326 18.8437 27.3407 15.6002 28.6467C15.5208 28.6787 15.435 28.6874 15.3512 28.677C15.3306 28.6796 15.31 28.6838 15.2887 28.6838C15.1431 28.6838 15.0129 28.6202 14.9215 28.5208C12.2426 27.4231 10.2057 26.1549 8.72424 24.7932L7.17542 27.345C7.11305 27.4475 7.01524 27.524 6.901 27.5608L1.20667 29.3918C0.94403 29.4762 0.662516 29.332 0.577759 29.0696C0.493235 28.8067 0.638187 28.5243 0.901001 28.4397L6.4176 26.6653L7.99475 24.0667C7.68304 23.73 7.4006 23.3909 7.151 23.0461C5.64202 20.9615 5.26143 18.7667 5.71741 16.7659C5.82798 16.2808 5.98771 15.8096 6.19006 15.3557L4.21741 15.8069L1.83557 19.6575C1.69035 19.8922 1.38189 19.9646 1.14709 19.8196C0.912556 19.6744 0.840143 19.3668 0.984985 19.1321L3.4762 15.1038C3.52902 15.0183 3.6057 14.951 3.69592 14.9104L3.78967 14.8792L6.83459 14.1819C7.14661 13.7079 7.50755 13.2605 7.91174 12.8459L6.11877 10.6926L0.952759 9.63013C0.682579 9.57437 0.508708 9.31052 0.564087 9.04028C0.619751 8.76981 0.884434 8.59595 1.15491 8.65161L6.4928 9.74927C6.60365 9.77212 6.70354 9.83225 6.776 9.91919L8.64807 12.1672C8.80619 12.0355 8.96813 11.9071 9.13538 11.7844C9.00773 10.3911 9.1495 8.46216 9.98108 6.81079C10.084 6.60635 10.1984 6.40616 10.3239 6.21118C10.3177 6.20542 10.3103 6.20071 10.3043 6.19458L8.52502 4.36353C8.43439 4.27023 8.38345 4.14496 8.38342 4.01489V1.08521C8.38342 0.809102 8.60734 0.585269 8.88342 0.585205C9.15954 0.585231 9.38342 0.809078 9.38342 1.08521V3.81177L10.9391 5.41333C11.259 5.06391 11.6282 4.74485 12.0563 4.47388C13.0086 3.87121 14.2166 3.51489 15.7213 3.51489C17.2259 3.51497 18.434 3.87116 19.3864 4.47388C19.9361 4.82189 20.3889 5.24811 20.7633 5.71899L22.6178 3.81177V1.08521C22.6178 0.809212 22.8419 0.585447 23.1178 0.585205ZM15.4137 10.7395C13.4389 10.7395 11.5872 11.3438 10.0914 12.3362C10.0207 12.4478 9.90849 12.5297 9.77112 12.5579C8.21125 13.6903 7.08733 15.2583 6.69299 16.9875C6.30399 18.6942 6.61286 20.5971 7.96155 22.4602C9.22018 24.1987 11.3979 25.9158 14.7887 27.3801V17.5637C14.7887 17.2876 15.0126 17.0637 15.2887 17.0637C15.5647 17.0639 15.7887 17.2877 15.7887 17.5637V27.4807C18.9027 26.1584 21.0037 24.6735 22.3326 23.1682C22.3636 23.1159 22.4053 23.0698 22.4557 23.0305C22.659 22.7916 22.8438 22.5529 23.0094 22.3137C24.3028 20.446 24.4987 18.5646 24.0074 16.8792C23.8166 16.2246 23.5193 15.5946 23.1373 15.0032C23.0791 14.95 23.0363 14.8828 23.0084 14.8088C22.4118 13.941 21.6304 13.1629 20.7291 12.5237C19.1566 11.4085 17.254 10.7396 15.4137 10.7395ZM15.7213 4.51489C14.3795 4.51489 13.3627 4.83058 12.5914 5.3186C11.8189 5.80755 11.2638 6.48816 10.8746 7.26099C10.2481 8.50521 10.0635 9.96755 10.1002 11.1575C11.657 10.2631 13.4927 9.7395 15.4137 9.7395C17.4874 9.73957 19.5883 10.4893 21.3073 11.7083C21.4258 10.4435 21.2952 8.70524 20.568 7.26099C20.1788 6.48816 19.6237 5.80758 18.8512 5.3186C18.08 4.83049 17.0632 4.51497 15.7213 4.51489Z" fill="white"/>
</svg>
