<svg width="18" height="18" viewBox="0 0 18 18" fill="none" xmlns="http://www.w3.org/2000/svg">
<path d="M9 0C13.9706 0 18 4.02944 18 9C18 13.9706 13.9706 18 9 18C4.02944 18 0 13.9706 0 9C0 4.02944 4.02944 0 9 0ZM9 1C4.58172 1 1 4.58172 1 9C1 13.4183 4.58172 17 9 17C13.4183 17 17 13.4183 17 9C17 4.58172 13.4183 1 9 1ZM13.5527 4.31152C13.7432 4.22262 13.9695 4.26251 14.1182 4.41113C14.2668 4.5598 14.3067 4.78604 14.2178 4.97656L11.3545 11.1123C11.3048 11.2187 11.2187 11.3048 11.1123 11.3545L4.97656 14.2178C4.78604 14.3067 4.5598 14.2668 4.41113 14.1182C4.26251 13.9695 4.22262 13.7432 4.31152 13.5527L7.1748 7.41699L7.21875 7.34082C7.26874 7.26961 7.33724 7.21203 7.41699 7.1748L13.5527 4.31152ZM8.00391 8.00391L5.79883 12.7295L10.5244 10.5244L12.7295 5.79883L8.00391 8.00391ZM9.26465 8.4707C9.70321 8.4707 10.0586 8.8261 10.0586 9.26465C10.0586 9.70323 9.70323 10.0586 9.26465 10.0586C8.8261 10.0586 8.4707 9.70321 8.4707 9.26465C8.47073 8.82612 8.82612 8.47073 9.26465 8.4707Z" fill="white"/>
</svg>
