<svg width="30" height="30" viewBox="0 0 30 30" fill="none" xmlns="http://www.w3.org/2000/svg">
<path d="M14.5454 0.408691C17.4886 0.408691 19.4197 0.977763 20.4897 2.04639C21.5985 3.15399 21.6567 4.65793 21.2065 6.16553C20.7571 7.67017 19.7762 9.28884 18.6255 10.7993C18.5507 10.8975 18.4724 10.9938 18.396 11.0913C20.0821 10.0181 21.8752 9.11571 23.5171 8.71338C25.0969 8.32634 26.6541 8.37489 27.8169 9.32959C28.9736 10.2795 29.5903 12.0055 29.5903 14.6079C29.5903 17.2102 28.9737 18.9364 27.8169 19.8862C26.6542 20.8407 25.0967 20.8894 23.5171 20.5024C21.574 20.0263 19.4197 18.8484 17.481 17.5171C18.8021 19.4461 19.9668 21.5862 20.4399 23.5171C20.827 25.0968 20.7784 26.6541 19.8237 27.8169C18.8738 28.9736 17.1478 29.5903 14.5454 29.5903C11.943 29.5903 10.217 28.9737 9.26709 27.8169C8.31255 26.6541 8.26388 25.0968 8.65088 23.5171C9.03593 21.9457 9.87971 20.236 10.8921 18.6138C10.861 18.6377 10.8305 18.6632 10.7993 18.687C9.28876 19.8378 7.67025 20.8196 6.16553 21.269C4.65801 21.7192 3.15396 21.6609 2.04639 20.5522C0.977682 19.4823 0.408744 17.551 0.408691 14.6079C0.408691 11.6648 0.97782 9.7336 2.04639 8.66357C3.154 7.55482 4.65791 7.49658 6.16553 7.94678C7.31055 8.28877 8.5216 8.93867 9.70068 9.73682C8.89092 8.54623 8.22982 7.32247 7.88428 6.16553C7.43412 4.65799 7.49246 3.15397 8.60107 2.04639C9.67103 0.977718 11.6023 0.408722 14.5454 0.408691ZM14.4507 15.4243C12.4567 17.8058 10.2828 21.061 9.62256 23.7554C9.26735 25.2055 9.37821 26.3753 10.0405 27.1821C10.708 27.9949 12.0574 28.5903 14.5454 28.5903C17.0337 28.5903 18.3838 27.995 19.0513 27.1821C19.7135 26.3753 19.8244 25.2054 19.4692 23.7554C18.7993 21.0215 16.5697 17.7109 14.5522 15.3208C14.5188 15.3554 14.4845 15.3895 14.4507 15.4243ZM5.87939 8.90479C4.54639 8.50674 3.49224 8.63103 2.75342 9.37061C1.97607 10.1494 1.40869 11.7342 1.40869 14.6079C1.40875 17.4819 1.9759 19.0666 2.75342 19.8452C3.49222 20.5848 4.54644 20.7081 5.87939 20.3101C7.2152 19.911 8.72184 19.0136 10.1938 17.8921C11.461 16.9267 12.6773 15.8111 13.7085 14.7544C13.7532 14.7011 13.7969 14.6475 13.8413 14.5952C12.7828 13.4987 11.5153 12.3306 10.1938 11.3237C8.72171 10.2021 7.21531 9.3038 5.87939 8.90479ZM27.1821 10.1021C26.3753 9.43977 25.2054 9.32891 23.7554 9.68408C21.0184 10.3548 17.7027 12.5886 15.312 14.6079C17.7027 16.6272 21.0184 18.8601 23.7554 19.5308C25.2054 19.886 26.3753 19.7751 27.1821 19.1128C27.9949 18.4453 28.5903 17.0958 28.5903 14.6079C28.5903 12.1196 27.995 10.7695 27.1821 10.1021ZM14.5454 1.40869C11.6714 1.40872 10.0868 1.97593 9.30811 2.75342C8.56853 3.49223 8.44523 4.54642 8.84326 5.87939C9.24228 7.21522 10.1397 8.72181 11.2612 10.1938C12.2718 11.5202 13.4454 12.7921 14.5454 13.853C15.6455 12.7921 16.819 11.5203 17.8296 10.1938C18.9512 8.72173 19.8495 7.21528 20.2485 5.87939C20.6466 4.54642 20.5223 3.49223 19.7827 2.75342C19.0039 1.97603 17.4193 1.40869 14.5454 1.40869Z" fill="white"/>
</svg>
