<svg width="30" height="30" viewBox="0 0 30 30" fill="none" xmlns="http://www.w3.org/2000/svg">
<path d="M15 0C23.2843 0 30 6.71573 30 15C30 23.2843 23.2843 30 15 30C6.71573 30 0 23.2843 0 15C0 6.71573 6.71573 0 15 0ZM15 1C7.26801 1 1 7.26801 1 15C1 22.732 7.26801 29 15 29C22.732 29 29 22.732 29 15C29 7.26801 22.732 1 15 1ZM22.7295 7.48828C22.92 7.39943 23.1463 7.43925 23.2949 7.58789C23.4434 7.73657 23.4834 7.96289 23.3945 8.15332L18.6221 18.3799C18.5724 18.4862 18.4862 18.5724 18.3799 18.6221L8.15332 23.3945C7.96289 23.4834 7.73657 23.4434 7.58789 23.2949C7.43925 23.1463 7.39943 22.92 7.48828 22.7295L12.2607 12.5029L12.3047 12.4268C12.3547 12.3555 12.4232 12.298 12.5029 12.2607L22.7295 7.48828ZM13.0898 13.0898L8.97559 21.9062L17.792 17.792L21.9062 8.97559L13.0898 13.0898ZM15.4404 14.1172C16.1711 14.1172 16.7642 14.7098 16.7646 15.4404L16.7578 15.5762C16.69 16.2435 16.1257 16.7646 15.4404 16.7646L15.3057 16.7578C14.6384 16.6899 14.1172 16.1256 14.1172 15.4404C14.1176 14.7101 14.7101 14.1176 15.4404 14.1172ZM15.4404 15.1172C15.2623 15.1176 15.1176 15.2623 15.1172 15.4404C15.1172 15.6189 15.2621 15.7642 15.4404 15.7646C15.6191 15.7646 15.7646 15.6191 15.7646 15.4404C15.7642 15.2621 15.6189 15.1172 15.4404 15.1172Z" fill="white"/>
</svg>
