<svg width="20" height="20" viewBox="0 0 20 20" fill="none" xmlns="http://www.w3.org/2000/svg">
<path d="M9.69727 0.106445C11.6709 0.106487 13.0165 0.486037 13.7783 1.24707C14.5785 2.04685 14.6066 3.12429 14.2979 4.1582C14.039 5.02474 13.5244 5.93752 12.9092 6.80859C13.8225 6.28544 14.7607 5.86162 15.6387 5.64648C16.7134 5.38325 17.8169 5.40563 18.6514 6.09082C19.4795 6.77123 19.8945 7.98472 19.8945 9.73828C19.8945 11.4918 19.4795 12.7053 18.6514 13.3857C17.8169 14.071 16.7134 14.0933 15.6387 13.8301C14.5439 13.5618 13.356 12.9688 12.2383 12.2637C12.9367 13.3737 13.5228 14.5522 13.7891 15.6387C14.0523 16.7134 14.0299 17.8169 13.3447 18.6514C12.6643 19.4795 11.4508 19.8945 9.69727 19.8945C7.94375 19.8945 6.73024 19.4795 6.0498 18.6514C5.36459 17.8169 5.34221 16.7134 5.60547 15.6387C5.81156 14.7976 6.20934 13.9015 6.70215 13.0244C5.86322 13.6065 4.98958 14.0905 4.1582 14.3389C3.12414 14.6476 2.04687 14.6189 1.24707 13.8184C0.486139 13.0565 0.106465 11.7118 0.106445 9.73828C0.106472 7.76462 0.486022 6.41906 1.24707 5.65723C2.04686 4.857 3.12426 4.82899 4.1582 5.1377C4.73473 5.30992 5.33095 5.59682 5.92285 5.94922C5.56328 5.34883 5.27144 4.74316 5.09668 4.1582C4.78795 3.12411 4.81657 2.04688 5.61719 1.24707C6.37906 0.486139 7.72374 0.106465 9.69727 0.106445ZM9.69727 10.4697C8.39214 12.0428 7.00103 14.1468 6.57715 15.877C6.34561 16.8222 6.42931 17.538 6.82227 18.0166C7.22029 18.501 8.05794 18.8945 9.69727 18.8945C11.3367 18.8945 12.1743 18.5011 12.5723 18.0166C12.9652 17.5381 13.0489 16.8221 12.8174 15.877C12.3935 14.1469 11.0023 12.0428 9.69727 10.4697ZM3.87207 6.0957C3.01279 5.83916 2.38514 5.93301 1.9541 6.36426C1.48423 6.8348 1.10647 7.83369 1.10645 9.73828C1.10647 11.6431 1.48416 12.6418 1.9541 13.1123C2.38518 13.5438 3.01256 13.6365 3.87207 13.3799C4.73447 13.1222 5.7204 12.5377 6.69531 11.7949C7.52548 11.1624 8.32492 10.4324 9.00391 9.73828C8.32486 9.04403 7.52559 8.31425 6.69531 7.68164C5.72033 6.9388 4.73452 6.35335 3.87207 6.0957ZM18.0166 6.86328C17.5381 6.47034 16.8221 6.38667 15.877 6.61816C14.1469 7.04206 12.0428 8.4332 10.4697 9.73828C12.0428 11.0434 14.1468 12.4345 15.877 12.8584C16.8222 13.0899 17.5381 13.0062 18.0166 12.6133C18.501 12.2153 18.8945 11.3777 18.8945 9.73828C18.8945 8.09886 18.5011 7.26127 18.0166 6.86328ZM9.69727 1.10645C7.79243 1.10647 6.79372 1.48416 6.32324 1.9541C5.89173 2.38518 5.799 3.01252 6.05566 3.87207C6.31332 4.73446 6.89786 5.72042 7.64062 6.69531C8.27315 7.52546 9.00312 8.32494 9.69727 9.00391C10.3915 8.32484 11.1213 7.52561 11.7539 6.69531C12.4968 5.72032 13.0822 4.73453 13.3398 3.87207C13.5964 3.01283 13.5025 2.38514 13.0713 1.9541C12.6008 1.48424 11.6018 1.10649 9.69727 1.10645Z" fill="white"/>
</svg>
