<svg width="30" height="30" viewBox="0 0 30 30" fill="none" xmlns="http://www.w3.org/2000/svg">
<path d="M15 0C23.2843 0 30 6.71573 30 15C30 23.2843 23.2843 30 15 30C6.71573 30 0 23.2843 0 15C0 6.71573 6.71573 0 15 0ZM15 1C7.26801 1 1 7.26801 1 15C1 22.732 7.26801 29 15 29C22.732 29 29 22.732 29 15C29 7.26801 22.732 1 15 1ZM14.4824 6.22461C14.7586 6.22461 14.9824 6.44847 14.9824 6.72461V16.3311L20.5088 21.3545C20.7129 21.5402 20.7275 21.8563 20.542 22.0605C20.3563 22.2644 20.0401 22.2801 19.8359 22.0947L14.1465 16.9219L13.9824 16.7734V6.72461C13.9824 6.44858 14.2064 6.22479 14.4824 6.22461Z" fill="white"/>
</svg>
