<svg width="30" height="30" viewBox="0 0 30 30" fill="none" xmlns="http://www.w3.org/2000/svg">
<path d="M14.437 0.138184C17.4126 0.138184 19.7589 0.795126 21.6987 1.96533C23.6336 3.13269 25.1318 4.7911 26.4438 6.7417C26.9894 7.55288 27.2504 8.27729 27.2368 8.92236C27.2226 9.59032 26.915 10.1028 26.478 10.4683C26.0548 10.8221 25.513 11.0388 24.9897 11.1685C24.4615 11.2993 23.9155 11.3511 23.4526 11.3511H19.6011C20.0978 13.2132 20.5516 15.5285 20.7378 17.8628C20.8312 19.0339 20.8575 20.2208 20.7866 21.3638C20.8159 21.3236 20.845 21.2833 20.8745 21.2437C21.8525 19.9309 23.0229 18.7862 23.8081 18.1274C23.9901 17.9749 24.255 17.9709 24.4409 18.1187C24.6268 18.2667 24.6827 18.5261 24.5747 18.7378C24.0954 19.676 23.8871 20.7712 23.8296 21.7778C23.8004 22.2903 23.8119 22.7714 23.8423 23.1841C24.6325 22.5693 25.5708 22.2874 26.4565 22.1938C27.6457 22.0683 28.7936 22.2716 29.5015 22.5024C29.6998 22.5672 29.8374 22.7491 29.8462 22.9575C29.8547 23.1662 29.7321 23.3581 29.5396 23.439C26.4976 24.7151 25.4972 27.3469 25.3149 28.8608H29.3462C29.622 28.8608 29.8457 29.0851 29.8462 29.3608C29.8462 29.637 29.6223 29.8608 29.3462 29.8608H0.651855C0.375794 29.8607 0.151855 29.6369 0.151855 29.3608C0.15235 29.0852 0.3761 28.8609 0.651855 28.8608H4.68311C4.50085 27.3468 3.50062 24.715 0.458496 23.439C0.266104 23.3581 0.143319 23.1661 0.151855 22.9575C0.160674 22.7491 0.29826 22.5672 0.496582 22.5024C1.20436 22.2715 2.35213 22.0683 3.5415 22.1938C4.4272 22.2874 5.36546 22.5694 6.15576 23.1841C6.18613 22.7714 6.1977 22.2903 6.16846 21.7778C6.11096 20.7713 5.9026 19.676 5.42334 18.7378C5.31554 18.5261 5.3713 18.2667 5.55713 18.1187C5.74299 17.9707 6.00781 17.975 6.18994 18.1274C6.84953 18.6808 7.77935 19.5787 8.64014 20.6294C8.78128 17.4343 9.63765 13.9455 10.5142 11.3511H5.42236C5.05574 11.351 4.62785 11.2973 4.22314 11.1558C3.81987 11.0146 3.40607 10.7739 3.11865 10.3794C2.50541 9.53743 2.65782 8.31986 3.71924 6.7417C5.00116 4.83571 6.17322 3.16615 7.78369 1.98975C9.41683 0.796897 11.4589 0.138287 14.437 0.138184ZM6.97998 20.2573C7.08081 20.7584 7.14082 21.2542 7.16748 21.7212C7.22965 22.8111 7.12868 23.78 7.01123 24.355C6.97202 24.5469 6.82415 24.6978 6.6333 24.7417C6.4425 24.7856 6.24365 24.7144 6.12451 24.5591C5.45235 23.6822 4.4596 23.296 3.43604 23.188C2.98669 23.1406 2.54166 23.1501 2.1333 23.1899C4.65928 24.7992 5.53056 27.3222 5.68701 28.8608H12.3462C12.0216 27.6942 12.0548 26.5286 12.2417 25.52C12.3543 24.9128 12.5226 24.3532 12.7085 23.8735C11.5714 24.4551 11.0371 25.3135 10.9077 25.6929C10.8288 25.9244 10.5934 26.0649 10.3521 26.0249C10.1111 25.9847 9.93418 25.7761 9.93408 25.5317C9.93393 24.5771 9.43056 23.4604 8.68896 22.3618L8.63721 22.3647C8.63586 22.3371 8.63548 22.3094 8.63428 22.2817C8.53344 22.1348 8.42935 21.987 8.3208 21.8413C7.8958 21.2709 7.42987 20.7327 6.97998 20.2573ZM11.5728 11.3511C10.5505 14.2836 9.53527 18.4727 9.62646 21.9634C10.084 22.6629 10.4779 23.4118 10.7104 24.1636C11.2986 23.5021 12.2275 22.8227 13.5757 22.4927C13.7724 22.4445 13.9796 22.5206 14.0991 22.6841C14.2181 22.8476 14.2271 23.0672 14.1216 23.2397C13.8269 23.7203 13.4247 24.6206 13.2241 25.7026C13.0419 26.6863 13.0322 27.7923 13.3911 28.8608H16.6069C16.966 27.7923 16.9562 26.6864 16.7739 25.7026C16.5733 24.6207 16.1711 23.7203 15.8765 23.2397C15.7711 23.0673 15.78 22.8475 15.8989 22.6841C16.0183 22.5206 16.2257 22.4448 16.4224 22.4927C17.7704 22.8226 18.6995 23.5021 19.2876 24.1636C19.3353 24.0095 19.3913 23.8561 19.4517 23.7026C19.8514 22.0037 19.9047 19.9866 19.7417 17.9429C19.5523 15.5679 19.0753 13.2043 18.5649 11.3511H11.5728ZM23.0181 20.2573C22.5681 20.7328 22.1023 21.2708 21.6772 21.8413C21.1473 22.5526 20.7022 23.2847 20.4146 23.9858C20.3295 24.3402 20.2263 24.6826 20.1108 25.0132C20.0811 25.1905 20.064 25.3635 20.064 25.5317C20.0639 25.7761 19.8871 25.9848 19.646 26.0249C19.4048 26.0647 19.1692 25.9243 19.0903 25.6929C18.9609 25.3134 18.4265 24.455 17.2896 23.8735C17.4755 24.3532 17.6438 24.9129 17.7563 25.52C17.9433 26.5286 17.9765 27.6941 17.6519 28.8608H24.311C24.4675 27.3222 25.3388 24.7992 27.8647 23.1899C27.4565 23.1502 27.0113 23.1406 26.562 23.188C25.5385 23.2961 24.5456 23.6821 23.8735 24.5591C23.7544 24.7144 23.5556 24.7856 23.3647 24.7417C23.1741 24.6976 23.026 24.5467 22.9868 24.355C22.8694 23.78 22.7684 22.811 22.8306 21.7212C22.8572 21.2541 22.9172 20.7584 23.0181 20.2573ZM14.437 1.13818C11.6202 1.13829 9.79859 1.75649 8.37354 2.79736C6.92572 3.85496 5.84309 5.37669 4.54932 7.30029C3.55065 8.78519 3.70372 9.48344 3.92725 9.79053C4.05826 9.97022 4.27271 10.1132 4.55322 10.2114C4.83233 10.3091 5.14534 10.351 5.42236 10.3511H23.4526C23.8481 10.3511 24.3121 10.3061 24.7495 10.1978C25.1919 10.0881 25.5738 9.92209 25.8374 9.70166C26.0871 9.49277 26.2305 9.23894 26.2378 8.90186C26.2454 8.54176 26.0983 8.02068 25.6138 7.30029C24.3501 5.4215 22.9498 3.88828 21.1821 2.82178C19.4193 1.75832 17.2569 1.13818 14.437 1.13818Z" fill="white"/>
</svg>
