<svg width="21" height="30" viewBox="0 0 21 30" fill="none" xmlns="http://www.w3.org/2000/svg">
<path d="M10.4877 0.138184C12.1949 0.138193 14.8793 0.395697 17.0931 1.53369C18.2069 2.10633 19.2205 2.91232 19.9203 4.03662C20.6229 5.16572 20.987 6.58193 20.8568 8.33447C20.8135 8.91641 20.7439 9.45076 20.6498 9.93994C20.6252 10.0674 20.5688 10.1849 20.517 10.2769C20.4617 10.3749 20.3922 10.4773 20.3148 10.5796C20.1597 10.7847 19.9532 11.017 19.7142 11.2593C19.2351 11.7449 18.598 12.2992 17.9086 12.7974C17.2219 13.2935 16.4626 13.7496 15.7416 14.0239C15.3747 14.1634 14.983 14.266 14.601 14.2876C15.6353 17.2211 16.3537 20.8255 16.0873 23.8188C15.9415 25.4564 15.4965 26.9648 14.5931 28.0728C13.6725 29.2017 12.3191 29.8618 10.4877 29.8618C8.65631 29.8617 7.3018 29.2017 6.38123 28.0728C5.47815 26.9649 5.03287 25.4561 4.88708 23.8188C4.62094 20.8286 5.33783 17.2282 6.37048 14.2964C5.964 14.2872 5.54585 14.1948 5.14783 14.0571C4.40332 13.7996 3.63105 13.3614 2.93689 12.8755C2.24071 12.3881 1.6012 11.8377 1.12341 11.3374C0.885155 11.0879 0.679635 10.8425 0.525757 10.6177C0.383538 10.4098 0.242801 10.158 0.211304 9.90771C0.149514 9.41654 0.116577 8.88047 0.116577 8.29736C0.11667 6.55235 0.546982 5.14795 1.26794 4.02979C1.98721 2.91429 2.97855 2.11038 4.06189 1.53662C6.21527 0.39634 8.7782 0.138366 10.4877 0.138184ZM10.4877 9.43604C10.4156 9.4362 10.263 9.47808 10.0267 9.67432C9.79802 9.86435 9.53864 10.1594 9.26111 10.5581C8.707 11.3543 8.12669 12.4971 7.60291 13.8433C6.44552 16.8178 5.61015 20.6624 5.88318 23.73C6.01964 25.2628 6.42864 26.5479 7.15662 27.4409C7.86756 28.3128 8.92417 28.8617 10.4877 28.8618C12.0513 28.8618 13.1077 28.3128 13.8187 27.4409C14.5468 26.5479 14.9547 25.2629 15.0912 23.73C15.3642 20.6625 14.5298 16.8178 13.3724 13.8433C12.8487 12.4972 12.2683 11.3542 11.7142 10.5581C11.4366 10.1592 11.1764 9.8643 10.9476 9.67432C10.7112 9.47811 10.5595 9.43604 10.4877 9.43604ZM10.4877 5.60596C5.97266 5.60613 2.57042 8.37833 1.27576 9.93604C1.29611 9.97071 1.32163 10.0094 1.35095 10.0522C1.46484 10.2187 1.63244 10.4212 1.84705 10.646C2.27572 11.0949 2.86373 11.6035 3.51013 12.0562C4.15882 12.5103 4.84744 12.8947 5.47498 13.1118C6.01239 13.2977 6.44275 13.3369 6.75818 13.2612C7.27766 11.9619 7.8581 10.8226 8.43982 9.98682C8.7462 9.54662 9.0649 9.1732 9.38806 8.90479C9.7033 8.643 10.0784 8.43618 10.4877 8.43604C10.8969 8.43604 11.272 8.64305 11.5873 8.90479C11.9103 9.17307 12.2283 9.54686 12.5345 9.98682C13.1169 10.8236 13.6982 11.965 14.2181 13.2661C14.4813 13.3264 14.8683 13.2862 15.3861 13.0894C15.9944 12.858 16.6739 12.4555 17.3226 11.9868C17.9683 11.5203 18.5632 11.0022 19.0023 10.5571C19.2223 10.3342 19.3966 10.1352 19.517 9.97607C19.5364 9.95037 19.5511 9.9242 19.5668 9.90186C18.2929 8.34236 14.9727 5.60599 10.4877 5.60596ZM10.4877 1.13818C8.84671 1.13836 6.47373 1.39091 4.52966 2.42041C3.56428 2.9317 2.7157 3.62898 2.10779 4.57178C1.5018 5.51178 1.11667 6.72404 1.11658 8.29736C1.11658 8.40974 1.11795 8.52046 1.12048 8.62842C2.83651 6.907 6.18201 4.60611 10.4877 4.60596C14.8403 4.60599 18.1585 6.95828 19.8207 8.68799C19.835 8.54922 19.8489 8.4064 19.8597 8.26025C19.9761 6.69438 19.6489 5.49408 19.0707 4.56494C18.4894 3.6311 17.6327 2.93572 16.6361 2.42334C14.629 1.39154 12.1307 1.13819 10.4877 1.13818Z" fill="white"/>
</svg>
