<svg width="18" height="16" viewBox="0 0 18 16" fill="none" xmlns="http://www.w3.org/2000/svg">
<path d="M0.280378 13.8977C-0.0425811 14.157 -0.0941344 14.6291 0.165231 14.952C0.424596 15.275 0.896663 15.3266 1.21962 15.0672L0.75 14.4824L0.280378 13.8977ZM17.6831 1.56384C17.728 1.15208 17.4307 0.781823 17.0189 0.736854L10.3088 0.00406026C9.89705 -0.0409083 9.52679 0.25644 9.48183 0.668205C9.43686 1.07997 9.73421 1.45023 10.146 1.49519L16.1105 2.14657L15.4591 8.11111C15.4142 8.52287 15.7115 8.89313 16.1233 8.93809C16.535 8.98306 16.9053 8.68571 16.9503 8.27395L17.6831 1.56384ZM0.75 14.4824L1.21962 15.0672L17.4071 2.06719L16.9375 1.48242L16.4679 0.897652L0.280378 13.8977L0.75 14.4824Z" fill="white"/>
</svg>
