<svg width="21" height="31" viewBox="0 0 21 31" fill="none" xmlns="http://www.w3.org/2000/svg">
<path d="M6.79919 0.5C8.10568 0.500002 8.9759 1.02883 9.50525 1.72949C10.0164 2.40635 10.183 3.20668 10.183 3.75V3.75879L9.94666 17.2363C12.4898 19.0144 13.6757 22.229 13.3041 25.0342C13.1114 26.4885 12.4967 27.8609 11.4056 28.8711C10.3098 29.8854 8.77099 30.5 6.79919 30.5C3.17626 30.5 0.829856 28.126 0.182983 25.2666C-0.445279 22.489 0.522883 19.2442 3.41541 17.2344V3.75C3.41543 3.20668 3.58201 2.40635 4.09314 1.72949C4.62248 1.02882 5.49271 0.500015 6.79919 0.5ZM6.79919 1.5C5.79876 1.50001 5.22695 1.88816 4.89099 2.33301C4.53708 2.80182 4.41544 3.37671 4.41541 3.75V17.5C4.4154 17.6691 4.3295 17.8267 4.18787 17.9189C1.48861 19.6737 0.600481 22.5827 1.15759 25.0459C1.71249 27.4989 3.69229 29.5 6.79919 29.5C8.55359 29.5 9.83968 28.9581 10.7269 28.1367C11.6186 27.311 12.1453 26.1674 12.3129 24.9033C12.6505 22.3554 11.516 19.429 9.17224 17.9199C9.02694 17.8262 8.93973 17.6641 8.94275 17.4912L9.18396 3.75H9.18298C9.18295 3.3767 9.06134 2.80183 8.7074 2.33301C8.37143 1.88815 7.79967 1.5 6.79919 1.5ZM6.79919 3.5C7.07529 3.5 7.29912 3.72392 7.29919 4V20.6357C7.68571 20.769 8.18035 20.9762 8.61658 21.3301C9.22785 21.826 9.70248 22.5913 9.70251 23.75C9.70251 24.5721 9.23231 25.2621 8.68396 25.7256C8.13949 26.1856 7.42849 26.5 6.79919 26.5C6.20534 26.5 5.49619 26.2744 4.92908 25.832C4.34911 25.3795 3.89587 24.6799 3.89587 23.75C3.89591 22.5976 4.36567 21.7934 4.97302 21.2754C5.39811 20.913 5.88136 20.6987 6.29919 20.5879V4C6.29927 3.72399 6.52319 3.5001 6.79919 3.5ZM6.7533 21.5107C6.43738 21.5627 5.99301 21.7202 5.62146 22.0371C5.22754 22.3732 4.89591 22.9028 4.89587 23.75C4.89587 24.3198 5.1632 24.7455 5.54431 25.043C5.93848 25.3505 6.4317 25.4999 6.79919 25.5C7.13113 25.5 7.62162 25.3141 8.03845 24.9619C8.45144 24.6129 8.70251 24.1779 8.70251 23.75C8.70248 22.9091 8.37672 22.424 7.98669 22.1074C7.60455 21.7974 7.14163 21.6339 6.7533 21.5107ZM16.2689 0C16.5448 0.000267432 16.7689 0.224023 16.7689 0.5V3.42871H19.1849C19.461 3.4288 19.6849 3.65263 19.6849 3.92871C19.6849 4.20473 19.461 4.42862 19.1849 4.42871H16.7689V7.35742C16.7688 7.63327 16.5447 7.85715 16.2689 7.85742C15.9929 7.85742 15.7691 7.63344 15.7689 7.35742V4.42871H13.3519C13.0758 4.42871 12.852 4.20479 12.8519 3.92871C12.8519 3.65257 13.0758 3.42871 13.3519 3.42871H15.7689V0.5C15.7689 0.223858 15.9928 0 16.2689 0Z" fill="white"/>
</svg>
