<svg width="39" height="18" viewBox="0 0 39 18" fill="none" xmlns="http://www.w3.org/2000/svg">
<path d="M19.3188 0.356689C19.5296 0.356742 19.7181 0.489486 19.7896 0.687744C19.8607 0.886 19.7995 1.10815 19.6372 1.24243C18.9645 1.79923 18.0566 3.19208 17.6333 4.9895C17.2148 6.7667 17.2851 8.87828 18.4771 10.887C19.6868 12.9254 21.5985 13.5262 23.6382 13.4514C25.6994 13.3757 27.8245 12.6054 29.2935 11.969C29.4725 11.8915 29.6803 11.9258 29.8257 12.0559C29.971 12.1862 30.0277 12.389 29.9702 12.5754C29.5007 14.0943 28.6672 15.4695 27.604 16.6438H38.1528C38.4286 16.6442 38.6528 16.8679 38.6528 17.1438C38.6526 17.4195 38.4285 17.6434 38.1528 17.6438H0.848145C0.572157 17.6438 0.348395 17.4197 0.348145 17.1438C0.348145 16.8677 0.572002 16.6438 0.848145 16.6438H10.8042C9.44538 14.6825 8.84687 12.7372 8.82666 10.8987C8.80457 8.88712 9.4731 7.04248 10.5269 5.4856C12.618 2.39654 16.285 0.356833 19.3188 0.356689ZM18.104 1.47388C15.7014 1.9197 13.0043 3.60977 11.355 6.04614C10.3962 7.46273 9.80618 9.11162 9.82568 10.8879C9.84523 12.6607 10.4725 14.5995 12.0093 16.6018C12.0194 16.615 12.027 16.6299 12.0356 16.6438H26.2007C27.2198 15.6872 28.0564 14.5635 28.6167 13.3225C27.2113 13.8589 25.4394 14.3866 23.6743 14.4514C21.3997 14.5348 19.0717 13.8494 17.6167 11.3977C16.2655 9.12092 16.1951 6.73261 16.6597 4.76001C16.9662 3.45868 17.5127 2.31073 18.104 1.47388Z" fill="white"/>
</svg>
