<svg width="21" height="30" viewBox="0 0 21 30" fill="none" xmlns="http://www.w3.org/2000/svg">
<path d="M6.80005 0C8.10001 0 8.9693 0.508689 9.50122 1.18945C10.0152 1.84751 10.1838 2.62645 10.1838 3.1582V3.16699L9.94849 16.1816C12.4874 17.902 13.6781 21.0139 13.3049 23.7373C13.1112 25.1504 12.4936 26.4818 11.4006 27.46C10.3043 28.441 8.7672 29.0332 6.80005 29.0332C3.1895 29.033 0.834433 26.745 0.183838 23.9648C-0.447555 21.266 0.528099 18.1224 3.41626 16.1787V3.1582C3.4163 2.62651 3.585 1.84746 4.09888 1.18945C4.63071 0.508645 5.5002 0.000132104 6.80005 0ZM6.80005 1C5.79319 1.00013 5.22028 1.37806 4.88696 1.80469C4.53601 2.25405 4.4163 2.80391 4.41626 3.1582V16.4502C4.41619 16.622 4.32736 16.7816 4.18188 16.873C1.48306 18.5692 0.604157 21.3725 1.15747 23.7373C1.70858 26.0922 3.68126 28.033 6.80005 28.0332C8.55884 28.0332 9.84697 27.5082 10.7336 26.7148C11.6238 25.9182 12.1481 24.8166 12.3147 23.6016C12.6502 21.1534 11.5232 18.3326 9.17993 16.874C9.03095 16.7811 8.94059 16.617 8.9436 16.4414L9.18481 3.1582H9.18384C9.18379 2.80387 9.06419 2.25408 8.71313 1.80469C8.37973 1.37811 7.80697 1 6.80005 1ZM6.80005 2.90039C7.07619 2.90039 7.30005 3.12425 7.30005 3.40039V19.4668C7.68515 19.5955 8.17665 19.7946 8.6106 20.1348C9.22246 20.6146 9.70337 21.36 9.70337 22.4922C9.70319 23.3003 9.22619 23.9728 8.67896 24.4199C8.13358 24.8653 7.42404 25.167 6.80005 25.167C6.21061 25.1668 5.50381 24.9501 4.93677 24.5225C4.35731 24.0854 3.89688 23.404 3.89673 22.4922C3.89673 21.3668 4.37166 20.5836 4.97974 20.082C5.40356 19.7326 5.88479 19.526 6.30005 19.4189V3.40039C6.30005 3.12446 6.5242 2.90074 6.80005 2.90039ZM6.75513 20.3438C6.4364 20.3938 5.98896 20.5465 5.61646 20.8535C5.22346 21.1777 4.89673 21.6848 4.89673 22.4922C4.89687 23.0297 5.15777 23.4359 5.53931 23.7236C5.93323 24.0207 6.42828 24.1668 6.80005 24.167C7.13717 24.167 7.63027 23.9851 8.04614 23.6455C8.46003 23.3074 8.70319 22.8921 8.70337 22.4922C8.70337 21.6911 8.38301 21.2274 7.99341 20.9219C7.60987 20.6212 7.14467 20.4631 6.75513 20.3438ZM19.1858 2.83105C19.4619 2.83105 19.6858 3.05491 19.6858 3.33105C19.6857 3.60712 19.4619 3.83105 19.1858 3.83105H13.3528C13.0768 3.8309 12.8529 3.60702 12.8528 3.33105C12.8528 3.05501 13.0768 2.83121 13.3528 2.83105H19.1858Z" fill="white"/>
</svg>
