<svg width="35" height="30" viewBox="0 0 35 30" fill="none" xmlns="http://www.w3.org/2000/svg">
<path d="M24.3474 0.25C26.3332 0.25 27.6243 1.07665 28.4031 2.14258C29.1634 3.18354 29.4128 4.41852 29.4128 5.25C29.4128 5.52613 29.189 5.74998 28.9128 5.75H26.363C26.3335 9.03104 26.0181 13.8926 25.1433 18.4316C24.6831 20.8193 24.0656 23.134 23.2488 25.0879C22.7298 26.3291 22.1199 27.446 21.4031 28.3467C23.4142 27.5574 25.0361 25.7697 26.2937 23.6162C27.7314 21.154 28.6342 18.3111 29.0662 16.25H27.3914C27.2414 16.2499 27.0986 16.1825 27.0037 16.0664C26.9089 15.9503 26.8713 15.7973 26.9011 15.6504C27.0402 14.9653 27.41 13.9512 28.0828 13.0967C28.7629 12.2329 29.7826 11.5002 31.1951 11.5C32.6235 11.5 33.5343 12.2509 34.0623 13.1543C34.5752 14.0323 34.739 15.0634 34.739 15.75C34.739 16.0261 34.5151 16.2499 34.239 16.25H32.4822C32.6498 20.6095 31.184 23.7611 29.2273 25.9287C27.2045 28.1694 24.6741 29.342 22.9363 29.7373C22.9001 29.7455 22.863 29.75 22.8259 29.75H15.2175C9.87167 29.75 6.48681 27.4128 4.45776 24.4717C2.58649 21.759 1.88157 18.5559 1.79272 16.25H0.760498C0.610591 16.2499 0.468705 16.1824 0.373779 16.0664C0.278906 15.9503 0.240441 15.7974 0.270264 15.6504C0.409298 14.9653 0.779166 13.9512 1.4519 13.0967C2.1321 12.2327 3.15248 11.5001 4.56519 11.5C5.99339 11.5001 6.90347 12.2509 7.4314 13.1543C7.94438 14.0323 8.10814 15.0634 8.10815 15.75C8.10815 16.0261 7.8843 16.25 7.60815 16.25H5.8396C5.99522 19.1812 7.49986 21.8264 9.40991 23.9873C10.894 25.6662 12.5991 27.0244 14.0349 27.9639C12.4872 24.4578 10.4827 17.8223 10.8835 10.25H8.3689C8.12067 10.2498 7.91037 10.067 7.87476 9.82129C7.73709 8.87072 7.81331 7.43492 8.5271 6.21582C9.26426 4.95688 10.641 4.00009 12.9343 4C15.2276 4 16.6043 4.95696 17.3416 6.21582C18.0553 7.43489 18.1325 8.87072 17.9949 9.82129C17.9592 10.0671 17.7482 10.25 17.4998 10.25H14.9197C14.6868 13.2292 14.5264 17.5228 14.7654 21.2686C14.8913 23.2424 15.1261 25.0401 15.5085 26.4062C15.6998 27.0894 15.9223 27.6438 16.1726 28.0527C16.3979 28.4207 16.6265 28.6395 16.8455 28.75H17.2419C19.2092 25.927 22.816 17.6886 22.3435 5.75H19.782C19.5061 5.74972 19.282 5.52597 19.282 5.25C19.282 4.41852 19.5314 3.18354 20.2917 2.14258C21.0704 1.07656 22.3616 0.250088 24.3474 0.25ZM23.3445 5.75C23.7879 17.1626 20.5725 25.3196 18.4373 28.75H19.6101C20.6666 27.9145 21.5717 26.5085 22.3269 24.7021C23.1077 22.8343 23.7081 20.5926 24.1609 18.2432C25.021 13.7802 25.3334 8.98481 25.363 5.75H23.3445ZM30.0876 16.25C29.6563 18.4075 28.7088 21.4637 27.157 24.1211C26.0815 25.9627 24.6844 27.662 22.9285 28.709C24.4823 28.3079 26.6976 27.2377 28.4841 25.2588C30.2746 23.2755 31.6498 20.3651 31.4822 16.25H30.0876ZM2.7937 16.25C2.883 18.4049 3.54985 21.3938 5.28101 23.9033C6.87221 26.2099 9.3735 28.1294 13.2205 28.624C11.7762 27.6502 10.1177 26.2986 8.65991 24.6494C6.65856 22.3851 4.99484 19.5124 4.83862 16.25H2.7937ZM11.8855 10.25C11.5223 16.9232 13.082 22.8556 14.4851 26.4424C14.113 25.0138 13.8884 23.2286 13.7673 21.332C13.5265 17.5575 13.6848 13.2564 13.9167 10.25H11.8855ZM4.56519 12.5C3.54339 12.5001 2.78786 13.0174 2.23804 13.7158C1.85423 14.2034 1.58641 14.7639 1.4187 15.25H7.07495C7.01396 14.7498 6.86175 14.1607 6.56812 13.6582C6.18305 12.9994 5.57115 12.5001 4.56519 12.5ZM31.1951 12.5C30.1734 12.5002 29.4177 13.0175 28.8679 13.7158C28.4843 14.2033 28.2172 14.764 28.0496 15.25H33.7058C33.6448 14.7497 33.4926 14.1607 33.199 13.6582C32.8139 12.9993 32.2013 12.5 31.1951 12.5ZM12.9343 5C10.9672 5.00008 9.93398 5.79327 9.39038 6.72168C8.91786 7.52885 8.78926 8.48956 8.82593 9.25H17.0427C17.0794 8.48951 16.9509 7.52888 16.4783 6.72168C15.9346 5.79328 14.9016 5 12.9343 5ZM24.3474 1.25C22.6815 1.25009 21.6902 1.92363 21.0994 2.73242C20.6279 3.37791 20.3984 4.1322 20.3181 4.75H28.3777C28.2974 4.13225 28.0678 3.37788 27.5964 2.73242C27.0056 1.9236 26.0135 1.25 24.3474 1.25Z" fill="white"/>
</svg>
