<svg width="30" height="30" viewBox="0 0 30 30" fill="none" xmlns="http://www.w3.org/2000/svg">
<path d="M15.0004 24.2056C15.2762 24.2058 15.5002 24.4297 15.5004 24.7056V29.1177C15.5002 29.3935 15.2762 29.6175 15.0004 29.6177C14.7243 29.6177 14.5006 29.3937 14.5004 29.1177V24.7056C14.5005 24.4296 14.7243 24.2056 15.0004 24.2056ZM21.5101 21.5103C21.7054 21.3155 22.022 21.3153 22.2172 21.5103L25.3373 24.6304C25.5317 24.8255 25.5318 25.1423 25.3373 25.3374C25.1422 25.5324 24.8256 25.532 24.6302 25.3374L21.5101 22.2173C21.315 22.022 21.3149 21.7055 21.5101 21.5103ZM7.78357 21.5093C7.97883 21.3144 8.29544 21.3142 8.4906 21.5093C8.68573 21.7044 8.68552 22.021 8.4906 22.2163L5.37048 25.3364C5.17521 25.5315 4.85865 25.5316 4.66345 25.3364C4.46835 25.1412 4.46843 24.8246 4.66345 24.6294L7.78357 21.5093ZM15.0004 7.94189C18.8986 7.94213 22.0588 11.1023 22.059 15.0005C22.0587 18.8986 18.8985 22.0588 15.0004 22.0591C11.1021 22.059 7.94201 18.8987 7.94177 15.0005C7.9419 11.1022 11.1021 7.94202 15.0004 7.94189ZM15.0004 8.94189C11.6544 8.94202 8.9419 11.6545 8.94177 15.0005C8.94201 18.3464 11.6544 21.059 15.0004 21.0591C18.3462 21.0588 21.0587 18.3463 21.059 15.0005C21.0588 11.6545 18.3463 8.94213 15.0004 8.94189ZM5.29431 14.4995C5.57012 14.4997 5.79403 14.7237 5.79431 14.9995C5.79431 15.2755 5.5703 15.4993 5.29431 15.4995H0.882202C0.60624 15.4993 0.382202 15.2755 0.382202 14.9995C0.382482 14.7237 0.606412 14.4997 0.882202 14.4995H5.29431ZM29.1185 14.4995C29.3942 14.4998 29.6182 14.7238 29.6185 14.9995C29.6185 15.2755 29.3944 15.4992 29.1185 15.4995H24.7064C24.4303 15.4995 24.2064 15.2757 24.2064 14.9995C24.2067 14.7236 24.4305 14.4995 24.7064 14.4995H29.1185ZM4.66345 4.66455C4.85864 4.46959 5.17527 4.46963 5.37048 4.66455L8.4906 7.78369C8.68555 7.9789 8.68558 8.2965 8.4906 8.4917C8.29547 8.68653 7.97878 8.68641 7.78357 8.4917L4.66345 5.37158C4.46856 5.17639 4.46856 4.85974 4.66345 4.66455ZM24.6293 4.66357C24.8245 4.46879 25.1412 4.46857 25.3363 4.66357C25.5314 4.85869 25.5311 5.17531 25.3363 5.37061L22.2162 8.49072C22.0209 8.68575 21.7043 8.68591 21.5092 8.49072C21.3141 8.29553 21.3142 7.97894 21.5092 7.78369L24.6293 4.66357ZM15.0004 0.382324C15.2762 0.382528 15.5001 0.606525 15.5004 0.882324V5.29443C15.5002 5.57029 15.2762 5.79423 15.0004 5.79443C14.7243 5.79443 14.5006 5.57042 14.5004 5.29443V0.882324C14.5006 0.606399 14.7244 0.382324 15.0004 0.382324Z" fill="white"/>
</svg>
