<svg width="41" height="18" viewBox="0 0 41 18" fill="none" xmlns="http://www.w3.org/2000/svg">
<path d="M40.1094 16.6816C40.3851 16.682 40.6093 16.9058 40.6094 17.1816C40.6094 17.4575 40.3852 17.6812 40.1094 17.6816H0.891602C0.615459 17.6816 0.391602 17.4578 0.391602 17.1816C0.391697 16.9056 0.615518 16.6816 0.891602 16.6816H40.1094ZM20.5 9.31836C24.6728 9.31857 28.1299 12.4339 28.1299 16.3643H27.1299C27.1299 13.065 24.2028 10.3186 20.5 10.3184C16.7972 10.3186 13.8691 13.065 13.8691 16.3643H12.8691C12.8691 12.4339 16.3272 9.31857 20.5 9.31836ZM4.55078 11.7812L8.94238 12.4922C9.21483 12.5364 9.39387 12.7924 9.3418 13.0635C9.28971 13.3345 9.02631 13.5184 8.75391 13.4746L4.3623 12.7637C4.08974 12.7195 3.9108 12.4636 3.96289 12.1924C4.01513 11.9215 4.27841 11.7373 4.55078 11.7812ZM36.3838 11.7812C36.6562 11.7372 36.9194 11.9215 36.9717 12.1924C37.0238 12.4636 36.8449 12.7195 36.5723 12.7637L32.1816 13.4746C31.9091 13.5187 31.6459 13.3345 31.5938 13.0635C31.5417 12.7924 31.7198 12.5365 31.9922 12.4922L36.3838 11.7812ZM9.43555 4.57129C9.63898 4.38455 9.96942 4.38455 10.1729 4.57129L13.3232 7.46387C13.5267 7.65061 13.5267 7.95291 13.3232 8.13965C13.1198 8.32619 12.7903 8.32632 12.5869 8.13965L9.43555 5.24707C9.23258 5.06043 9.23263 4.75796 9.43555 4.57129ZM30.4131 4.57129C30.6165 4.38455 30.947 4.38455 31.1504 4.57129C31.3534 4.75798 31.3535 5.06041 31.1504 5.24707L27.999 8.13965C27.7956 8.32635 27.4661 8.32628 27.2627 8.13965C27.0593 7.95292 27.0593 7.65061 27.2627 7.46387L30.4131 4.57129ZM20.5 0.318359C20.7761 0.318359 21 0.542217 21 0.818359V4.90918C20.9999 5.18524 20.7761 5.40918 20.5 5.40918C20.2239 5.40918 20.0001 5.18524 20 4.90918V0.818359C20 0.542217 20.2239 0.318359 20.5 0.318359Z" fill="white"/>
</svg>
