<svg width="33" height="28" viewBox="0 0 33 28" fill="none" xmlns="http://www.w3.org/2000/svg">
<path d="M14.3151 0.137695C14.4367 0.0222147 14.6098 -0.0262274 14.776 0.0136719C17.1502 0.585534 22.0074 2.89168 22.7448 8.69531C23.2478 8.58541 23.7641 8.52638 24.2877 8.52637C28.7882 8.52653 32.4332 12.1878 32.4332 16.7002C32.4332 21.2125 28.7882 24.8739 24.2877 24.874C23.1416 24.874 21.8158 24.4625 20.8473 24.0469C19.4576 25.9665 17.2048 27.2156 14.6598 27.2158L14.2662 27.2051C10.3564 27.0063 7.22115 23.8605 7.02307 19.9365L7.01331 19.542C7.01331 19.4041 7.01688 19.267 7.02405 19.1309C1.67557 17.6609 0.102586 13.3691 0.000610352 11.3252C-0.00753452 11.1606 0.0657864 11.0022 0.196899 10.9023C3.58575 8.32221 6.63952 7.89475 9.09631 8.47559C10.4507 8.79584 11.6031 9.41853 12.5153 10.125C12.2855 9.26615 12.112 8.27739 12.0709 7.21973C11.9849 5.00652 12.4771 2.46487 14.2662 0.19043L14.3151 0.137695ZM14.6598 12.8682C10.9928 12.8682 8.01353 15.853 8.01331 19.542C8.01338 23.2311 10.9927 26.2158 14.6598 26.2158C18.3266 26.2155 21.3052 23.2309 21.3053 19.542C21.3051 15.8532 18.3265 12.8685 14.6598 12.8682ZM24.2877 9.52637C21.917 9.52646 19.646 10.9546 18.3248 12.8076C20.6963 14.1106 22.3051 16.6373 22.3053 19.542L22.2955 19.9365C22.2363 21.1096 21.9118 22.2123 21.3854 23.1885C22.272 23.5537 23.3827 23.874 24.2877 23.874C28.2325 23.8739 31.4331 20.6636 31.4332 16.7002C31.4332 12.7367 28.2325 9.52653 24.2877 9.52637ZM11.9567 13.667C12.0942 13.6226 12.245 13.6394 12.3688 13.7139L13.6266 14.4707L15.1432 14.2178C15.2881 14.1936 15.4373 14.2342 15.5494 14.3291C15.6614 14.4241 15.7262 14.5641 15.7262 14.7109V16.25L16.4762 17.2539C16.5605 17.367 16.5932 17.511 16.566 17.6494C16.5388 17.7878 16.4544 17.9086 16.3336 17.9814L15.0758 18.7383L14.568 20.2686C14.5261 20.3944 14.4356 20.4992 14.317 20.5586C14.1984 20.6179 14.06 20.6269 13.9342 20.585L12.3932 20.0693L10.8531 20.585C10.689 20.6398 10.5077 20.6058 10.3746 20.4951C10.2417 20.3843 10.1757 20.2123 10.1998 20.041L10.4518 18.2637L9.45471 17.0117C9.35637 16.8883 9.32184 16.7259 9.36194 16.5732C9.40225 16.4205 9.51224 16.2952 9.65881 16.2363L10.8824 15.7441L11.651 13.9463C11.7077 13.8134 11.8192 13.7115 11.9567 13.667ZM11.7213 16.3281C11.6693 16.4498 11.5706 16.5462 11.4479 16.5957L10.6539 16.9131L11.3688 17.8096C11.4544 17.9171 11.4926 18.0563 11.4733 18.1924L11.3033 19.3789L12.235 19.0684C12.3378 19.034 12.4496 19.034 12.5524 19.0684L13.776 19.4775L14.1852 18.248L14.2203 18.167C14.2626 18.0893 14.3253 18.0237 14.402 17.9775L15.3444 17.4092L14.8258 16.7158C14.7613 16.6295 14.7263 16.5238 14.7262 16.416V15.3008L13.609 15.4883C13.4918 15.5078 13.3711 15.485 13.2692 15.4238L12.3444 14.8672L11.7213 16.3281ZM26.1022 11.8896C26.2722 11.8321 26.4612 11.8693 26.5953 11.9893L27.9615 13.2129L29.4254 13.3691C29.558 13.3833 29.68 13.4501 29.7633 13.5547C29.8464 13.6592 29.8843 13.793 29.8688 13.9258L29.7574 14.8838L30.8864 16.3828C30.9871 16.5167 31.0148 16.6934 30.9596 16.8516C30.9043 17.0097 30.7728 17.1297 30.611 17.1709L29.569 17.4355L29.1813 18.3623C29.1223 18.5027 29.0024 18.6083 28.8561 18.6494C28.7096 18.6905 28.5527 18.6618 28.4293 18.5723L27.1549 17.6484L26.0035 17.4932C25.7691 17.4614 25.5888 17.269 25.5719 17.0322L25.4908 15.873L24.4586 14.6699C24.3609 14.5559 24.3193 14.4038 24.3453 14.2559C24.3715 14.1082 24.462 13.9795 24.5924 13.9062L25.5621 13.3633L25.7721 12.2676C25.8062 12.0912 25.9326 11.9473 26.1022 11.8896ZM1.09534 12.0107C1.47527 13.891 3.01549 16.932 7.14417 18.127C7.40208 16.7392 8.03202 15.4835 8.92639 14.4668L1.09534 12.0107ZM26.4987 13.7822C26.4707 13.9269 26.3807 14.0521 26.2526 14.124L25.6139 14.4824L26.3541 15.3467L26.401 15.4111C26.4427 15.4793 26.4685 15.5571 26.4742 15.6377L26.5397 16.5547L27.4108 16.6719C27.4921 16.6829 27.5698 16.7136 27.6364 16.7617L28.5045 17.3916L28.7448 16.8164C28.8054 16.6716 28.9308 16.5629 29.0826 16.5244L29.6373 16.3848L28.8395 15.3262C28.762 15.2232 28.7269 15.0939 28.7418 14.9658L28.819 14.3115L27.6979 14.1924C27.5941 14.1813 27.4965 14.1371 27.4186 14.0674L26.5875 13.3232L26.4987 13.7822ZM8.86584 9.44922C6.91685 8.98848 4.4483 9.22578 1.60706 11.123L9.71155 13.665C9.71889 13.6673 9.72588 13.6712 9.73303 13.6738C10.6797 12.8726 11.8229 12.2982 13.0797 12.0332C12.2168 11.0187 10.7608 9.89727 8.86584 9.44922ZM14.5641 1.49219C13.3514 3.35544 12.9996 5.36865 13.0699 7.18066C13.1483 9.19578 13.7484 10.936 14.233 11.8809C14.3743 11.8731 14.5166 11.8682 14.6598 11.8682L15.0524 11.8779C15.842 11.9181 16.5996 12.08 17.3082 12.3428C17.4351 10.668 17.0054 8.48098 16.3678 6.34863C15.8178 4.50931 15.127 2.7581 14.5641 1.49219ZM15.5748 1.30469C16.1341 2.58446 16.7935 4.28225 17.3258 6.0625C17.8402 7.78293 18.2502 9.62101 18.3209 11.2461C19.2591 10.2634 20.4493 9.45024 21.7692 8.97656C21.2541 4.39361 17.9099 2.1734 15.5748 1.30469Z" fill="white"/>
</svg>
