<svg width="44" height="44" viewBox="0 0 44 44" fill="none" xmlns="http://www.w3.org/2000/svg">
<path d="M13.4366 27.9152C13.1137 28.1746 13.0621 28.6467 13.3215 28.9696C13.5808 29.2926 14.0529 29.3441 14.3759 29.0848L13.9062 28.5L13.4366 27.9152ZM30.8393 15.5814C30.8843 15.1697 30.5869 14.7994 30.1752 14.7544L23.4651 14.0216C23.0533 13.9767 22.683 14.274 22.6381 14.6858C22.5931 15.0975 22.8905 15.4678 23.3022 15.5128L29.2668 16.1641L28.6154 22.1287C28.5704 22.5404 28.8678 22.9107 29.2795 22.9557C29.6913 23.0006 30.0616 22.7033 30.1065 22.2915L30.8393 15.5814ZM13.9062 28.5L14.3759 29.0848L30.5634 16.0848L30.0937 15.5L29.6241 14.9152L13.4366 27.9152L13.9062 28.5Z" fill="#133524"/>
</svg>
