<svg width="42" height="31" viewBox="0 0 42 31" fill="none" xmlns="http://www.w3.org/2000/svg">
<path d="M27.6387 0.0117188C27.7422 0.034135 27.837 0.0890386 27.9082 0.169922L30.9131 3.58203H40.5986C40.8748 3.58203 41.0986 3.80592 41.0986 4.08203V29.6045C41.0984 29.8804 40.8746 30.1045 40.5986 30.1045H0.5C0.224186 30.1043 0.000267696 29.8803 0 29.6045V4.08203C3.14236e-05 3.80603 0.22404 3.58222 0.5 3.58203H10.6367L13.6416 0.169922L13.7197 0.0976562C13.8049 0.0348668 13.909 7.62493e-05 14.0166 0H27.5332L27.6387 0.0117188ZM11.2383 4.41211C11.1434 4.51965 11.0058 4.58203 10.8623 4.58203H1V29.1045H40.0986V4.58203H30.6865C30.5432 4.58185 30.4063 4.5197 30.3115 4.41211L27.3066 1H14.2422L11.2383 4.41211ZM21.332 4.99121C27.0451 5.27928 31.5878 9.97435 31.5879 15.7236C31.5877 21.6583 26.7471 26.4696 20.7754 26.4697L20.2188 26.4561C14.5055 26.1683 9.96213 21.473 9.96191 15.7236C9.96201 9.78871 14.8035 4.97754 20.7754 4.97754L21.332 4.99121ZM20.7754 5.97754C15.3499 5.97754 10.962 10.3468 10.9619 15.7236C10.9621 21.1003 15.35 25.4697 20.7754 25.4697C26.2006 25.4696 30.5877 21.1002 30.5879 15.7236C30.5878 10.3469 26.2007 5.97771 20.7754 5.97754ZM20.7754 9.00684C24.2588 9.00704 27.0829 11.8135 27.083 15.2754C27.083 18.7373 24.2589 21.5437 20.7754 21.5439C17.2918 21.5439 14.4678 18.7374 14.4678 15.2754C14.4679 11.8134 17.2919 9.00688 20.7754 9.00684ZM20.7754 10.0068C17.8383 10.0069 15.4679 12.3716 15.4678 15.2754C15.4678 18.1793 17.8382 20.5439 20.7754 20.5439C23.7124 20.5437 26.083 18.1792 26.083 15.2754C26.0829 12.3717 23.7123 10.007 20.7754 10.0068ZM7.70898 8.05957C7.98499 8.05968 8.20891 8.28355 8.20898 8.55957C8.20872 8.83543 7.98488 9.05947 7.70898 9.05957H5.90625C5.63059 9.05919 5.40651 8.83526 5.40625 8.55957C5.40632 8.28372 5.63047 8.05995 5.90625 8.05957H7.70898Z" fill="white"/>
</svg>
