<svg width="23" height="31" viewBox="0 0 23 31" fill="none" xmlns="http://www.w3.org/2000/svg">
<path d="M11.3962 7.13719V15.1018M11.3962 30.5V21.7389M11.3962 15.1018L14.2904 12.4469M11.3962 15.1018V18.8186M11.3962 18.8186L7.44956 15.1018M11.3962 18.8186V21.7389M11.3962 21.7389C13.2379 23.4204 17.6055 25.9336 20.3418 22.5354C23.0781 19.1372 21.1311 15.6328 19.8156 14.3053C21.2188 13.5974 23.6044 11.4912 21.9205 8.73011C20.2366 5.96905 18.0616 6.34073 17.1845 6.8717C17.1845 4.7478 16.0269 0.5 11.3962 0.5C6.76548 0.5 5.43241 4.7478 5.3447 6.8717C3.94146 6.69472 1.02974 6.81863 0.60877 8.73011C0.187798 10.6416 1.8366 13.2434 2.71363 14.3053C1.31039 15.8098 -0.864626 19.562 1.66121 22.5354C4.18704 25.5088 9.20361 23.2434 11.3962 21.7389Z" stroke="white" stroke-linecap="round" stroke-linejoin="round"/>
</svg>
