<svg width="36" height="18" viewBox="0 0 36 18" fill="none" xmlns="http://www.w3.org/2000/svg">
<path d="M6.17383 16.5C6.44989 16.5001 6.67383 16.7239 6.67383 17C6.67383 17.2761 6.44989 17.4999 6.17383 17.5H0.771484C0.495459 17.4999 0.271484 17.2761 0.271484 17C0.271484 16.7239 0.495459 16.5001 0.771484 16.5H6.17383ZM15.4346 16.5C15.7106 16.5001 15.9346 16.7239 15.9346 17C15.9346 17.2761 15.7106 17.4999 15.4346 17.5H10.0322C9.75626 17.4998 9.53223 17.276 9.53223 17C9.53223 16.724 9.75626 16.5002 10.0322 16.5H15.4346ZM25.4678 16.5C25.7437 16.5002 25.9678 16.724 25.9678 17C25.9678 17.276 25.7437 17.4998 25.4678 17.5H20.0654C19.7893 17.5 19.5654 17.2761 19.5654 17C19.5654 16.7239 19.7893 16.5 20.0654 16.5H25.4678ZM34.7285 16.5C35.0045 16.5001 35.2285 16.7239 35.2285 17C35.2285 17.2761 35.0045 17.4999 34.7285 17.5H29.3262C29.05 17.5 28.8262 17.2761 28.8262 17C28.8262 16.7239 29.05 16.5 29.3262 16.5H34.7285ZM10.0332 11.5C10.3091 11.5003 10.5332 11.7241 10.5332 12C10.5332 12.2759 10.3091 12.4997 10.0332 12.5H4.63086C4.35472 12.5 4.13086 12.2761 4.13086 12C4.13086 11.7239 4.35472 11.5 4.63086 11.5H10.0332ZM20.0654 11.5C20.3415 11.5001 20.5654 11.7239 20.5654 12C20.5654 12.2761 20.3415 12.4999 20.0654 12.5H14.6631C14.3869 12.5 14.1631 12.2761 14.1631 12C14.1631 11.7239 14.3869 11.5 14.6631 11.5H20.0654ZM30.0977 11.5C30.3737 11.5001 30.5977 11.7239 30.5977 12C30.5977 12.2761 30.3737 12.4999 30.0977 12.5H24.6953C24.4193 12.4998 24.1953 12.276 24.1953 12C24.1953 11.724 24.4193 11.5002 24.6953 11.5H30.0977ZM6.17383 6.5C6.44989 6.50009 6.67383 6.72391 6.67383 7C6.67383 7.27609 6.44989 7.49991 6.17383 7.5H0.771484C0.495459 7.49986 0.271484 7.27606 0.271484 7C0.271484 6.72394 0.495459 6.50014 0.771484 6.5H6.17383ZM15.4346 6.5C15.7106 6.50009 15.9346 6.72391 15.9346 7C15.9346 7.27609 15.7106 7.49991 15.4346 7.5H10.0322C9.75626 7.49979 9.53223 7.27601 9.53223 7C9.53223 6.72399 9.75626 6.50021 10.0322 6.5H15.4346ZM25.4678 6.5C25.7437 6.50021 25.9678 6.72398 25.9678 7C25.9678 7.27602 25.7437 7.49979 25.4678 7.5H20.0654C19.7893 7.5 19.5654 7.27614 19.5654 7C19.5654 6.72386 19.7893 6.5 20.0654 6.5H25.4678ZM34.7285 6.5C35.0045 6.50014 35.2285 6.72394 35.2285 7C35.2285 7.27606 35.0045 7.49986 34.7285 7.5H29.3262C29.05 7.5 28.8262 7.27614 28.8262 7C28.8262 6.72386 29.05 6.5 29.3262 6.5H34.7285ZM34.7275 0.5C35.0037 0.5 35.2275 0.723858 35.2275 1C35.2275 1.27614 35.0037 1.5 34.7275 1.5H0.771484C0.495459 1.49986 0.271484 1.27606 0.271484 1C0.271484 0.723943 0.495459 0.500138 0.771484 0.5H34.7275Z" fill="white"/>
</svg>
